<svg width="32" height="32" viewBox="0 0 32 32" fill="none" xmlns="http://www.w3.org/2000/svg">
<rect x="0.5" y="0.5" width="31" height="31" rx="15.5" stroke="#EAECF0"/>
<path fill-rule="evenodd" clip-rule="evenodd" d="M14.9247 9.00458C12.3384 9.00458 10.2415 11.1014 10.2415 13.6877C10.2415 16.274 12.3384 18.3709 14.9247 18.3709C17.511 18.3709 19.6078 16.274 19.6078 13.6877C19.6078 11.1014 17.511 9.00458 14.9247 9.00458Z" stroke="#344054" stroke-width="1.5" stroke-linecap="round" stroke-linejoin="round"/>
<path d="M17.7264 9.99414C17.7264 9.99414 15.7835 13.2468 19.6078 13.6873" stroke="#344054" stroke-width="1.5" stroke-linecap="round" stroke-linejoin="round"/>
<path d="M19.1162 15.7651C19.1162 15.7651 17.767 15.6721 17.0212 15.2874C16.7265 15.1353 16.4171 14.8815 16.1468 14.6253C15.7812 14.2788 15.1457 14.3851 14.9685 14.8566C14.6443 15.7197 14.5722 16.6571 14.7607 17.5596L14.909 18.2701" stroke="#344054" stroke-width="1.5" stroke-linecap="round" stroke-linejoin="round"/>
<path d="M11.3328 16.6489L12.2152 15.8429C12.7737 15.3328 12.9995 14.5529 12.7999 13.8232L12.7498 13.64C12.5139 12.7777 12.948 11.8732 13.7683 11.5177C14.5202 11.1919 14.9563 10.3984 14.8284 9.58898L14.7361 9.00458" stroke="#344054" stroke-width="1.5" stroke-linecap="round" stroke-linejoin="round"/>
<path d="M9.73291 18.8839C12.6003 21.7513 17.2495 21.7513 20.1168 18.8839C22.9843 16.0166 22.9843 11.3674 20.1168 8.5" stroke="#344054" stroke-width="1.5" stroke-linecap="round" stroke-linejoin="round"/>
<path d="M14.925 21.0488V23.1046" stroke="#344054" stroke-width="1.5" stroke-linecap="round" stroke-linejoin="round"/>
<path d="M18.1 23.1038H11.7471" stroke="#344054" stroke-width="1.5" stroke-linecap="round" stroke-linejoin="round"/>
</svg>
