<svg width="437" height="261" viewBox="0 0 437 261" fill="none" xmlns="http://www.w3.org/2000/svg">
<g filter="url(#filter0_dd_1_13781)">
<g clip-path="url(#clip0_1_13781)">
<rect x="3.45709" y="2.17896" width="430" height="254.642" rx="10.338" fill="white"/>
<path d="M18.2336 37.409V26.3215H22.8547C24.9482 26.3215 26.4989 27.2984 26.4989 29.6245C26.4989 31.9505 24.9482 32.912 22.8547 32.912H19.9394V37.409H18.2336ZM19.9394 31.4388H22.7772C24.0643 31.4388 24.7155 30.865 24.7155 29.6245C24.7155 28.3684 24.0643 27.7946 22.7772 27.7946H19.9394V31.4388ZM30.8214 37.6416C28.3093 37.6416 26.9137 35.8583 26.9137 33.4392C26.9137 30.9581 28.4023 29.2523 30.8214 29.2523C33.225 29.2523 34.5742 30.834 34.5742 33.2841C34.5742 33.5012 34.5742 33.7338 34.5586 33.8579H28.4799C28.5109 35.1915 29.2863 36.401 30.8525 36.401C32.2481 36.401 32.7753 35.5016 32.9304 34.9744H34.4656C34.0624 36.4941 32.8994 37.6416 30.8214 37.6416ZM30.7749 30.4929C29.5034 30.4929 28.5729 31.3612 28.4799 32.6638H32.9769C32.9769 31.4233 32.124 30.4929 30.7749 30.4929ZM35.8413 29.5004H37.3609V31.0046H37.392C37.7951 30.0121 38.4464 29.3143 39.5164 29.3143C39.7956 29.3143 40.0126 29.3298 40.2453 29.3608V30.8185C40.0437 30.7875 39.9041 30.772 39.7335 30.772C38.3534 30.772 37.3609 31.811 37.3609 33.3151V37.409H35.8413V29.5004ZM43.4621 37.409H41.9424V30.7565H40.8569V29.5004H41.9424V28.539C41.9424 26.7091 42.7023 26.2129 43.9894 26.2129C44.2685 26.2129 44.5166 26.2439 44.9508 26.3059V27.531C44.6407 27.5 44.5166 27.4845 44.2995 27.4845C43.6637 27.4845 43.4621 27.6706 43.4621 28.5079V29.5004H44.9508V30.7565H43.4621V37.409ZM49.2675 37.6416C46.8018 37.6416 45.3132 35.9358 45.3132 33.4547C45.3132 30.9891 46.8018 29.2523 49.2675 29.2523C51.7331 29.2523 53.2217 30.9736 53.2217 33.4392C53.2217 35.9203 51.7331 37.6416 49.2675 37.6416ZM49.2675 36.3855C50.8802 36.3855 51.64 35.0984 51.64 33.4547C51.64 31.7954 50.8802 30.5239 49.2675 30.5239C47.6392 30.5239 46.8949 31.7954 46.8949 33.4547C46.8949 35.0984 47.6392 36.3855 49.2675 36.3855ZM54.483 29.5004H56.0027V31.0046H56.0337C56.4369 30.0121 57.0882 29.3143 58.1582 29.3143C58.4373 29.3143 58.6544 29.3298 58.887 29.3608V30.8185C58.6854 30.7875 58.5459 30.772 58.3753 30.772C56.9952 30.772 56.0027 31.811 56.0027 33.3151V37.409H54.483V29.5004ZM59.9953 37.409V29.5004H61.515V30.4929H61.546C61.9647 29.8881 62.6935 29.2678 63.8876 29.2678C64.9886 29.2678 65.6554 29.764 65.981 30.6479H66.012C66.5858 29.8881 67.3767 29.2678 68.6017 29.2678C70.1989 29.2678 71.0053 30.2292 71.0053 31.9195V37.409H69.4856V32.3382C69.4856 31.2837 69.2685 30.5704 68.1055 30.5704C66.9735 30.5704 66.2601 31.3612 66.2601 32.5553V37.409H64.7405V32.3382C64.7405 31.2837 64.5234 30.5704 63.3603 30.5704C62.2283 30.5704 61.515 31.3612 61.515 32.5553V37.409H59.9953ZM74.7824 37.6261C73.2006 37.6261 72.1927 36.7112 72.1927 35.3621C72.1927 33.5943 73.5263 33.0825 75.4957 32.6949C76.7363 32.4622 77.4961 32.3072 77.4961 31.5318C77.4961 30.9581 77.1549 30.4773 75.9919 30.4773C74.6118 30.4773 74.1931 30.9115 74.1156 31.966H72.5649C72.6424 30.4463 73.6348 29.2523 76.0539 29.2523C77.6822 29.2523 78.9848 29.9346 78.9848 31.9815V35.6102C78.9848 36.1839 79.0623 36.4786 79.3569 36.4786C79.4035 36.4786 79.45 36.4786 79.543 36.4631V37.3935C79.2794 37.4555 79.0158 37.4865 78.7677 37.4865C78.0233 37.4865 77.6046 37.1919 77.5271 36.2925H77.4961C76.9689 37.1144 76.0694 37.6261 74.7824 37.6261ZM75.1235 36.401C76.4881 36.401 77.4961 35.7032 77.4961 34.3231V33.1911C77.248 33.4237 76.5657 33.5943 75.7593 33.7648C74.3637 34.0595 73.7899 34.4316 73.7899 35.2535C73.7899 35.9979 74.1776 36.401 75.1235 36.401ZM80.7723 37.409V29.5004H82.292V30.4929H82.323C82.7417 29.8881 83.5636 29.2678 84.9282 29.2678C86.3859 29.2678 87.5644 30.1052 87.5644 31.9195V37.409H86.0292V32.3382C86.0292 31.2837 85.564 30.5704 84.432 30.5704C83.1294 30.5704 82.292 31.3612 82.292 32.5553V37.409H80.7723ZM94.6218 32.3692C94.5598 31.5473 94.0946 30.5239 92.6369 30.5239C90.9621 30.5239 90.3419 31.966 90.3419 33.4547C90.3419 34.9434 90.9621 36.37 92.6369 36.37C94.0946 36.37 94.5598 35.3776 94.6218 34.4782H96.2035C96.095 36.2925 94.6683 37.6416 92.6524 37.6416C90.2953 37.6416 88.7601 35.9358 88.7601 33.4547C88.7601 30.9736 90.2953 29.2678 92.6369 29.2678C94.6683 29.2678 96.0174 30.5859 96.2035 32.3692H94.6218ZM100.982 37.6416C98.4696 37.6416 97.074 35.8583 97.074 33.4392C97.074 30.9581 98.5627 29.2523 100.982 29.2523C103.385 29.2523 104.734 30.834 104.734 33.2841C104.734 33.5012 104.734 33.7338 104.719 33.8579H98.6402C98.6712 35.1915 99.4466 36.401 101.013 36.401C102.408 36.401 102.936 35.5016 103.091 34.9744H104.626C104.223 36.4941 103.06 37.6416 100.982 37.6416ZM100.935 30.4929C99.6637 30.4929 98.7332 31.3612 98.6402 32.6638H103.137C103.137 31.4233 102.284 30.4929 100.935 30.4929Z" fill="#101828"/>
<path d="M409.741 28.7419C410.138 28.7419 410.459 28.4205 410.459 28.024C410.459 27.6275 410.138 27.3061 409.741 27.3061C409.345 27.3061 409.023 27.6275 409.023 28.024C409.023 28.4205 409.345 28.7419 409.741 28.7419Z" stroke="#98A2B3" stroke-width="1.43584" stroke-linecap="round" stroke-linejoin="round"/>
<path d="M409.741 23.7165C410.138 23.7165 410.459 23.3951 410.459 22.9986C410.459 22.6021 410.138 22.2807 409.741 22.2807C409.345 22.2807 409.023 22.6021 409.023 22.9986C409.023 23.3951 409.345 23.7165 409.741 23.7165Z" stroke="#98A2B3" stroke-width="1.43584" stroke-linecap="round" stroke-linejoin="round"/>
<path d="M409.741 33.7674C410.138 33.7674 410.459 33.446 410.459 33.0495C410.459 32.653 410.138 32.3315 409.741 32.3315C409.345 32.3315 409.023 32.653 409.023 33.0495C409.023 33.446 409.345 33.7674 409.741 33.7674Z" stroke="#98A2B3" stroke-width="1.43584" stroke-linecap="round" stroke-linejoin="round"/>
<line x1="17.6737" y1="70.6856" x2="284.74" y2="70.6856" stroke="#F2F4F7" stroke-width="0.861503" stroke-linecap="round"/>
<line x1="17.6737" y1="100.408" x2="284.74" y2="100.408" stroke="#F2F4F7" stroke-width="0.861503" stroke-linecap="round"/>
<line x1="17.6737" y1="127.976" x2="284.74" y2="127.976" stroke="#F2F4F7" stroke-width="0.861503" stroke-linecap="round"/>
<line x1="17.6737" y1="155.544" x2="284.74" y2="155.544" stroke="#F2F4F7" stroke-width="0.861503" stroke-linecap="round"/>
<line x1="17.6737" y1="183.112" x2="284.74" y2="183.112" stroke="#F2F4F7" stroke-width="0.861503" stroke-linecap="round"/>
<line x1="17.6737" y1="210.68" x2="284.74" y2="210.68" stroke="#F2F4F7" stroke-width="0.861503" stroke-linecap="round"/>
<path d="M28.8827 235.574C28.8827 236.774 28.3865 237.973 26.7221 237.973C25.0576 237.973 24.5717 236.774 24.5717 235.574V235.368H25.5022V235.574C25.5022 236.463 25.6469 237.146 26.7221 237.146C27.7972 237.146 27.9523 236.463 27.9523 235.574V230.436H28.8827V235.574ZM31.3699 237.973C30.3051 237.973 29.6331 237.363 29.6331 236.474C29.6331 235.264 30.5222 234.944 31.8868 234.685C32.7862 234.52 33.1997 234.416 33.1997 233.9C33.1997 233.486 32.9723 233.124 32.1039 233.124C31.1011 233.124 30.8116 233.424 30.7599 234.189H29.8916C29.9432 233.176 30.5842 232.401 32.1349 232.401C33.117 232.401 34.0061 232.814 34.0061 234.106V236.639C34.0061 237.053 34.0681 237.259 34.2749 237.259C34.3059 237.259 34.3369 237.259 34.3989 237.249V237.828C34.2645 237.859 34.1405 237.88 33.9958 237.88C33.5409 237.88 33.2618 237.704 33.2101 237.053H33.1894C32.8482 237.621 32.2486 237.973 31.3699 237.973ZM31.4526 237.249C32.445 237.249 33.1997 236.805 33.1997 235.791V234.954C33.0447 235.119 32.5278 235.254 31.9592 235.368C30.9357 235.585 30.5015 235.822 30.5015 236.432C30.5015 236.949 30.7703 237.249 31.4526 237.249ZM35.262 237.828V232.556H36.089V233.186H36.1097C36.3888 232.814 36.9471 232.411 37.8465 232.411C38.8079 232.411 39.6143 232.938 39.6143 234.148V237.828H38.7873V234.354C38.7873 233.672 38.4668 233.135 37.6397 233.135C36.7093 233.135 36.089 233.724 36.089 234.541V237.828H35.262Z" fill="#475467"/>
<path d="M58.7071 233.662H62.0049V234.489H58.7071V237.828H57.7767V230.436H62.7906V231.263H58.7071V233.662ZM65.1785 237.983C63.514 237.983 62.6146 236.784 62.6146 235.181C62.6146 233.496 63.6174 232.401 65.1785 232.401C66.7188 232.401 67.6182 233.455 67.6182 234.995C67.6182 235.15 67.6182 235.326 67.6079 235.409H63.483C63.5037 236.339 64.0309 237.27 65.1888 237.27C66.2226 237.27 66.6155 236.577 66.7085 236.205H67.5459C67.2771 237.187 66.5328 237.983 65.1785 237.983ZM65.1371 233.114C64.2274 233.114 63.5347 233.765 63.483 234.685H66.7395C66.7395 233.817 66.1192 233.114 65.1371 233.114ZM69.3638 237.146H69.3432V237.828H68.5161V230.436H69.3432V233.207H69.3638C69.674 232.804 70.1702 232.411 71.0179 232.411C72.3412 232.411 73.3957 233.455 73.3957 235.192C73.3957 236.929 72.3412 237.973 71.0179 237.973C70.1702 237.973 69.674 237.601 69.3638 237.146ZM70.9352 233.135C69.9531 233.135 69.3432 233.951 69.3432 235.192C69.3432 236.432 69.9531 237.249 70.9352 237.249C72.0207 237.249 72.5273 236.226 72.5273 235.192C72.5273 234.158 72.0207 233.135 70.9352 233.135Z" fill="#475467"/>
<path d="M91.5361 237.828V230.436H92.8077L95.1234 236.577H95.1441L97.4598 230.436H98.7314V237.828H97.801V231.749H97.7803L95.5473 237.828H94.7202L92.4872 231.749H92.4665V237.828H91.5361ZM101.422 237.973C100.357 237.973 99.6855 237.363 99.6855 236.474C99.6855 235.264 100.575 234.944 101.939 234.685C102.839 234.52 103.252 234.416 103.252 233.9C103.252 233.486 103.025 233.124 102.156 233.124C101.153 233.124 100.864 233.424 100.812 234.189H99.9439C99.9956 233.176 100.637 232.401 102.187 232.401C103.169 232.401 104.058 232.814 104.058 234.106V236.639C104.058 237.053 104.12 237.259 104.327 237.259C104.358 237.259 104.389 237.259 104.451 237.249V237.828C104.317 237.859 104.193 237.88 104.048 237.88C103.593 237.88 103.314 237.704 103.262 237.053H103.242C102.901 237.621 102.301 237.973 101.422 237.973ZM101.505 237.249C102.497 237.249 103.252 236.805 103.252 235.791V234.954C103.097 235.119 102.58 235.254 102.012 235.368C100.988 235.585 100.554 235.822 100.554 236.432C100.554 236.949 100.823 237.249 101.505 237.249ZM105.314 232.556H106.141V233.6H106.162C106.441 232.907 106.865 232.411 107.62 232.411C107.816 232.411 107.961 232.421 108.106 232.442V233.269C107.982 233.248 107.889 233.238 107.764 233.238C106.793 233.238 106.141 234.003 106.141 235.016V237.828H105.314V232.556Z" fill="#475467"/>
<path d="M130.758 235.977H127.501L126.85 237.828H125.888L128.618 230.436H129.662L132.412 237.828H131.409L130.758 235.977ZM127.811 235.15H130.458L129.145 231.294H129.124L127.811 235.15ZM133.975 237.146H133.954V239.658H133.127V232.556H133.954V233.207H133.975C134.285 232.804 134.781 232.411 135.629 232.411C136.952 232.411 138.006 233.455 138.006 235.192C138.006 236.929 136.952 237.973 135.629 237.973C134.781 237.973 134.285 237.601 133.975 237.146ZM135.546 233.135C134.564 233.135 133.954 233.951 133.954 235.192C133.954 236.432 134.564 237.249 135.546 237.249C136.631 237.249 137.138 236.226 137.138 235.192C137.138 234.158 136.631 233.135 135.546 233.135ZM138.902 232.556H139.729V233.6H139.749C140.028 232.907 140.452 232.411 141.207 232.411C141.403 232.411 141.548 232.421 141.693 232.442V233.269C141.569 233.248 141.476 233.238 141.352 233.238C140.38 233.238 139.729 234.003 139.729 235.016V237.828H138.902V232.556Z" fill="#475467"/>
<path d="M159.449 237.828V230.436H160.72L163.036 236.577H163.057L165.372 230.436H166.644V237.828H165.714V231.749H165.693L163.46 237.828H162.633L160.4 231.749H160.379V237.828H159.449ZM169.335 237.973C168.27 237.973 167.598 237.363 167.598 236.474C167.598 235.264 168.487 234.944 169.852 234.685C170.751 234.52 171.165 234.416 171.165 233.9C171.165 233.486 170.937 233.124 170.069 233.124C169.066 233.124 168.777 233.424 168.725 234.189H167.857C167.908 233.176 168.549 232.401 170.1 232.401C171.082 232.401 171.971 232.814 171.971 234.106V236.639C171.971 237.053 172.033 237.259 172.24 237.259C172.271 237.259 172.302 237.259 172.364 237.249V237.828C172.23 237.859 172.105 237.88 171.961 237.88C171.506 237.88 171.227 237.704 171.175 237.053H171.154C170.813 237.621 170.214 237.973 169.335 237.973ZM169.418 237.249C170.41 237.249 171.165 236.805 171.165 235.791V234.954C171.01 235.119 170.493 235.254 169.924 235.368C168.901 235.585 168.466 235.822 168.466 236.432C168.466 236.949 168.735 237.249 169.418 237.249ZM174.547 237.776L172.407 232.556H173.338L174.961 236.753H174.982L176.532 232.556H177.421L175.292 237.983C174.765 239.317 174.258 239.679 173.545 239.679C173.359 239.679 173.234 239.668 172.997 239.627V238.924C173.172 238.945 173.255 238.955 173.41 238.955C173.844 238.955 174.32 238.686 174.547 237.776Z" fill="#475467"/>
<path d="M198.617 235.574C198.617 236.774 198.121 237.973 196.457 237.973C194.792 237.973 194.306 236.774 194.306 235.574V235.368H195.237V235.574C195.237 236.463 195.381 237.146 196.457 237.146C197.532 237.146 197.687 236.463 197.687 235.574V230.436H198.617V235.574ZM200.482 236.029C200.482 236.711 200.802 237.249 201.629 237.249C202.56 237.249 203.18 236.66 203.18 235.843V232.556H204.007V237.828H203.18V237.197H203.159C202.88 237.57 202.322 237.973 201.422 237.973C200.461 237.973 199.655 237.445 199.655 236.236V232.556H200.482V236.029ZM205.198 237.828V232.556H206.025V233.186H206.046C206.325 232.814 206.883 232.411 207.783 232.411C208.744 232.411 209.551 232.938 209.551 234.148V237.828H208.724V234.354C208.724 233.672 208.403 233.135 207.576 233.135C206.646 233.135 206.025 233.724 206.025 234.541V237.828H205.198Z" fill="#475467"/>
<path d="M231.677 235.574C231.677 236.774 231.181 237.973 229.517 237.973C227.852 237.973 227.366 236.774 227.366 235.574V235.368H228.297V235.574C228.297 236.463 228.442 237.146 229.517 237.146C230.592 237.146 230.747 236.463 230.747 235.574V230.436H231.677V235.574ZM233.542 236.029C233.542 236.711 233.862 237.249 234.689 237.249C235.62 237.249 236.24 236.66 236.24 235.843V232.556H237.067V237.828H236.24V237.197H236.219C235.94 237.57 235.382 237.973 234.483 237.973C233.521 237.973 232.715 237.445 232.715 236.236V232.556H233.542V236.029ZM238.259 230.436H239.086V237.828H238.259V230.436Z" fill="#475467"/>
<path d="M261.38 235.977H258.124L257.473 237.828H256.511L259.24 230.436H260.285L263.034 237.828H262.032L261.38 235.977ZM258.434 235.15H261.081L259.768 231.294H259.747L258.434 235.15ZM264.374 236.029C264.374 236.711 264.694 237.249 265.521 237.249C266.451 237.249 267.072 236.66 267.072 235.843V232.556H267.899V237.828H267.072V237.197H267.051C266.772 237.57 266.214 237.973 265.314 237.973C264.353 237.973 263.546 237.445 263.546 236.236V232.556H264.374V236.029ZM272.855 237.559V236.732H272.834C272.524 237.187 272.027 237.559 271.159 237.559C269.856 237.559 268.802 236.722 268.802 234.985C268.802 233.248 269.856 232.411 271.159 232.411C272.027 232.411 272.524 232.804 272.834 233.207H272.855V232.556H273.682V237.477C273.682 238.976 272.741 239.72 271.262 239.72C269.794 239.72 269.04 239.038 268.957 238.055H269.825C269.929 238.593 270.322 238.996 271.262 238.996C272.286 238.996 272.855 238.572 272.855 237.559ZM271.262 233.135C270.177 233.135 269.67 233.951 269.67 234.985C269.67 236.019 270.177 236.836 271.262 236.836C272.245 236.836 272.855 236.226 272.855 234.985C272.855 233.744 272.245 233.135 271.262 233.135Z" fill="#475467"/>
<path d="M294.314 233.538C295.751 233.879 297.064 234.21 297.064 235.781C297.064 237.001 296.268 237.973 294.428 237.973C292.577 237.973 291.296 237.001 291.192 235.347H292.164C292.267 236.37 292.846 237.156 294.387 237.156C295.72 237.156 296.092 236.567 296.092 235.812C296.092 234.778 295.369 234.654 293.932 234.292C292.815 234.013 291.502 233.672 291.502 232.245C291.502 231.067 292.412 230.292 294.004 230.292C295.679 230.292 296.702 231.139 296.826 232.628H295.855C295.72 231.636 295.203 231.108 294.014 231.108C292.981 231.108 292.474 231.501 292.474 232.204C292.474 233.124 293.363 233.31 294.314 233.538ZM300.289 237.983C298.625 237.983 297.726 236.784 297.726 235.181C297.726 233.496 298.728 232.401 300.289 232.401C301.83 232.401 302.729 233.455 302.729 234.995C302.729 235.15 302.729 235.326 302.719 235.409H298.594C298.615 236.339 299.142 237.27 300.3 237.27C301.334 237.27 301.726 236.577 301.819 236.205H302.657C302.388 237.187 301.644 237.983 300.289 237.983ZM300.248 233.114C299.338 233.114 298.646 233.765 298.594 234.685H301.85C301.85 233.817 301.23 233.114 300.248 233.114ZM304.475 237.146H304.454V239.658H303.627V232.556H304.454V233.207H304.475C304.785 232.804 305.281 232.411 306.129 232.411C307.452 232.411 308.507 233.455 308.507 235.192C308.507 236.929 307.452 237.973 306.129 237.973C305.281 237.973 304.785 237.601 304.475 237.146ZM306.046 233.135C305.064 233.135 304.454 233.951 304.454 235.192C304.454 236.432 305.064 237.249 306.046 237.249C307.132 237.249 307.638 236.226 307.638 235.192C307.638 234.158 307.132 233.135 306.046 233.135Z" fill="#475467"/>
<path d="M329.765 237.973C327.594 237.973 326.147 236.35 326.147 234.127C326.147 231.904 327.594 230.292 329.765 230.292C331.936 230.292 333.384 231.904 333.384 234.127C333.384 236.35 331.936 237.973 329.765 237.973ZM329.765 237.146C331.626 237.146 332.412 235.719 332.412 234.127C332.412 232.535 331.626 231.119 329.765 231.119C327.904 231.119 327.119 232.535 327.119 234.127C327.119 235.719 327.904 237.146 329.765 237.146ZM338.181 234.458C338.14 233.879 337.788 233.135 336.734 233.135C335.483 233.135 335.048 234.199 335.048 235.192C335.048 236.184 335.483 237.249 336.734 237.249C337.798 237.249 338.14 236.515 338.181 235.884H339.049C338.977 237.084 338.036 237.973 336.734 237.973C335.193 237.973 334.18 236.846 334.18 235.192C334.18 233.538 335.193 232.411 336.734 232.411C338.036 232.411 338.925 233.279 339.049 234.458H338.181ZM339.457 232.556H340.233V230.798H341.06V232.556H342.093V233.279H341.06V236.453C341.06 237.011 341.194 237.156 341.659 237.156C341.835 237.156 341.918 237.146 342.093 237.125V237.828C341.856 237.869 341.732 237.88 341.545 237.88C340.77 237.88 340.233 237.611 340.233 236.412V233.279H339.457V232.556Z" fill="#475467"/>
<path d="M360.133 237.828V230.436H361.271L364.961 236.505H364.982V230.436H365.912V237.828H364.775L361.084 231.76H361.064V237.828H360.133ZM369.454 237.983C367.841 237.983 366.869 236.836 366.869 235.192C366.869 233.548 367.841 232.401 369.454 232.401C371.056 232.401 372.028 233.548 372.028 235.192C372.028 236.836 371.056 237.983 369.454 237.983ZM369.454 237.259C370.632 237.259 371.16 236.319 371.16 235.192C371.16 234.065 370.632 233.124 369.454 233.124C368.265 233.124 367.738 234.065 367.738 235.192C367.738 236.319 368.265 237.259 369.454 237.259ZM372.224 232.556H373.134L374.602 237.001H374.612L376.059 232.556H376.948L375.056 237.828H374.116L372.224 232.556Z" fill="#475467"/>
<path d="M395.004 237.828V230.436H397.681C399.718 230.436 400.969 231.76 400.969 234.137C400.969 236.515 399.718 237.828 397.681 237.828H395.004ZM395.934 231.263V237.001H397.681C399.563 237.001 399.997 235.585 399.997 234.137C399.997 232.69 399.563 231.263 397.681 231.263H395.934ZM404.324 237.983C402.659 237.983 401.76 236.784 401.76 235.181C401.76 233.496 402.763 232.401 404.324 232.401C405.864 232.401 406.764 233.455 406.764 234.995C406.764 235.15 406.764 235.326 406.753 235.409H402.628C402.649 236.339 403.176 237.27 404.334 237.27C405.368 237.27 405.761 236.577 405.854 236.205H406.691C406.422 237.187 405.678 237.983 404.324 237.983ZM404.282 233.114C403.373 233.114 402.68 233.765 402.628 234.685H405.885C405.885 233.817 405.265 233.114 404.282 233.114ZM411.425 234.458C411.383 233.879 411.032 233.135 409.977 233.135C408.726 233.135 408.292 234.199 408.292 235.192C408.292 236.184 408.726 237.249 409.977 237.249C411.042 237.249 411.383 236.515 411.425 235.884H412.293C412.221 237.084 411.28 237.973 409.977 237.973C408.437 237.973 407.424 236.846 407.424 235.192C407.424 233.538 408.437 232.411 409.977 232.411C411.28 232.411 412.169 233.279 412.293 234.458H411.425Z" fill="#475467"/>
<g clip-path="url(#clip1_1_13781)">
<g clip-path="url(#clip2_1_13781)">
<g clip-path="url(#clip3_1_13781)">
<path d="M25.921 103.043H39.705V224.099H25.921V103.043Z" fill="#BBD5FB"/>
<path d="M25.921 138.351H39.705V224.099H25.921V138.351Z" fill="#77ADED"/>
<path d="M25.921 178.703H39.705V224.099H25.921V178.703Z" fill="#1C77FF"/>
</g>
<g clip-path="url(#clip4_1_13781)">
<path d="M59.5155 75.4749H73.2995V224.099H59.5155V75.4749Z" fill="#BBD5FB"/>
<path d="M59.5155 118.824H73.2995V224.099H59.5155V118.824Z" fill="#77ADED"/>
<path d="M59.5155 168.365H73.2995V224.099H59.5155V168.365Z" fill="#1C77FF"/>
</g>
<g clip-path="url(#clip5_1_13781)">
<path d="M93.11 130.611H106.894V224.099H93.11V130.611Z" fill="#BBD5FB"/>
<path d="M93.11 157.878H106.894V224.099H93.11V157.878Z" fill="#77ADED"/>
<path d="M93.11 189.041H106.894V224.099H93.11V189.041Z" fill="#1C77FF"/>
</g>
<g clip-path="url(#clip6_1_13781)">
<path d="M126.705 96.1509H140.489V224.099H126.705V96.1509Z" fill="#BBD5FB"/>
<path d="M126.705 133.469H140.489V224.099H126.705V133.469Z" fill="#77ADED"/>
<path d="M126.705 176.119H140.489V224.099H126.705V176.119Z" fill="#1C77FF"/>
</g>
<g clip-path="url(#clip7_1_13781)">
<path d="M160.299 130.611H174.083V224.099H160.299V130.611Z" fill="#BBD5FB"/>
<path d="M160.299 157.878H174.083V224.099H160.299V157.878Z" fill="#77ADED"/>
<path d="M160.299 189.041H174.083V224.099H160.299V189.041Z" fill="#1C77FF"/>
</g>
<g clip-path="url(#clip8_1_13781)">
<path d="M193.894 82.3669H207.678V224.099H193.894V82.3669Z" fill="#BBD5FB"/>
<path d="M193.894 123.706H207.678V224.099H193.894V123.706Z" fill="#77ADED"/>
<path d="M193.894 170.95H207.678V224.099H193.894V170.95Z" fill="#1C77FF"/>
</g>
<g clip-path="url(#clip9_1_13781)">
<path d="M227.488 103.043H241.272V224.099H227.488V103.043Z" fill="#BBD5FB"/>
<path d="M227.488 138.351H241.272V224.099H227.488V138.351Z" fill="#77ADED"/>
<path d="M227.488 178.703H241.272V224.099H227.488V178.703Z" fill="#1C77FF"/>
</g>
<g clip-path="url(#clip10_1_13781)">
<path d="M261.083 96.1509H274.867V224.099H261.083V96.1509Z" fill="#BBD5FB"/>
<path d="M261.083 133.469H274.867V224.099H261.083V133.469Z" fill="#77ADED"/>
<path d="M261.083 176.119H274.867V224.099H261.083V176.119Z" fill="#1C77FF"/>
</g>
<g clip-path="url(#clip11_1_13781)">
<path d="M294.677 103.043H308.461V224.099H294.677V103.043Z" fill="#BBD5FB"/>
<path d="M294.677 138.351H308.461V224.099H294.677V138.351Z" fill="#77ADED"/>
<path d="M294.677 178.703H308.461V224.099H294.677V178.703Z" fill="#1C77FF"/>
</g>
<g clip-path="url(#clip12_1_13781)">
<path d="M328.272 89.2589H342.056V224.099H328.272V89.2589Z" fill="#BBD5FB"/>
<path d="M328.272 128.587H342.056V224.099H328.272V128.587Z" fill="#77ADED"/>
<path d="M328.272 173.534H342.056V224.099H328.272V173.534Z" fill="#1C77FF"/>
</g>
<g clip-path="url(#clip13_1_13781)">
<path d="M361.866 75.4749H375.65V224.099H361.866V75.4749Z" fill="#BBD5FB"/>
<path d="M361.866 118.824H375.65V224.099H361.866V118.824Z" fill="#77ADED"/>
<path d="M361.866 168.365H375.65V224.099H361.866V168.365Z" fill="#1C77FF"/>
</g>
<g clip-path="url(#clip14_1_13781)">
<path d="M395.461 109.935H409.245V224.099H395.461V109.935Z" fill="#BBD5FB"/>
<path d="M395.461 143.233H409.245V224.099H395.461V143.233Z" fill="#77ADED"/>
<path d="M395.461 181.288H409.245V224.099H395.461V181.288Z" fill="#1C77FF"/>
</g>
</g>
</g>
</g>
<rect x="3.88784" y="2.60971" width="429.138" height="253.781" rx="9.90728" stroke="#EAECF0" stroke-width="0.861503"/>
</g>
<defs>
<filter id="filter0_dd_1_13781" x="0.872584" y="0.455949" width="435.169" height="259.811" filterUnits="userSpaceOnUse" color-interpolation-filters="sRGB">
<feFlood flood-opacity="0" result="BackgroundImageFix"/>
<feColorMatrix in="SourceAlpha" type="matrix" values="0 0 0 0 0 0 0 0 0 0 0 0 0 0 0 0 0 0 127 0" result="hardAlpha"/>
<feOffset dy="0.861503"/>
<feGaussianBlur stdDeviation="0.861503"/>
<feColorMatrix type="matrix" values="0 0 0 0 0.0627451 0 0 0 0 0.0941176 0 0 0 0 0.156863 0 0 0 0.06 0"/>
<feBlend mode="normal" in2="BackgroundImageFix" result="effect1_dropShadow_1_13781"/>
<feColorMatrix in="SourceAlpha" type="matrix" values="0 0 0 0 0 0 0 0 0 0 0 0 0 0 0 0 0 0 127 0" result="hardAlpha"/>
<feOffset dy="0.861503"/>
<feGaussianBlur stdDeviation="1.29225"/>
<feColorMatrix type="matrix" values="0 0 0 0 0.0627451 0 0 0 0 0.0941176 0 0 0 0 0.156863 0 0 0 0.1 0"/>
<feBlend mode="normal" in2="effect1_dropShadow_1_13781" result="effect2_dropShadow_1_13781"/>
<feBlend mode="normal" in="SourceGraphic" in2="effect2_dropShadow_1_13781" result="shape"/>
</filter>
<clipPath id="clip0_1_13781">
<rect x="3.45709" y="2.17896" width="430" height="254.642" rx="10.338" fill="white"/>
</clipPath>
<clipPath id="clip1_1_13781">
<rect width="403.883" height="162.299" fill="white" transform="translate(15.5829 61.6908)"/>
</clipPath>
<clipPath id="clip2_1_13781">
<rect width="404" height="162.299" fill="white" transform="translate(15.5829 61.6908)"/>
</clipPath>
<clipPath id="clip3_1_13781">
<path d="M25.921 106.489C25.921 104.586 27.4638 103.043 29.367 103.043H36.259C38.1622 103.043 39.705 104.586 39.705 106.489V224.099H25.921V106.489Z" fill="white"/>
</clipPath>
<clipPath id="clip4_1_13781">
<path d="M59.5155 78.9209C59.5155 77.0177 61.0583 75.4749 62.9615 75.4749H69.8535C71.7567 75.4749 73.2995 77.0177 73.2995 78.9209V224.099H59.5155V78.9209Z" fill="white"/>
</clipPath>
<clipPath id="clip5_1_13781">
<path d="M93.11 134.057C93.11 132.154 94.6529 130.611 96.5561 130.611H103.448C105.351 130.611 106.894 132.154 106.894 134.057V224.099H93.11V134.057Z" fill="white"/>
</clipPath>
<clipPath id="clip6_1_13781">
<path d="M126.705 99.597C126.705 97.6938 128.247 96.1509 130.151 96.1509H137.043C138.946 96.1509 140.489 97.6938 140.489 99.597V224.099H126.705V99.597Z" fill="white"/>
</clipPath>
<clipPath id="clip7_1_13781">
<path d="M160.299 134.057C160.299 132.154 161.842 130.611 163.745 130.611H170.637C172.54 130.611 174.083 132.154 174.083 134.057V224.099H160.299V134.057Z" fill="white"/>
</clipPath>
<clipPath id="clip8_1_13781">
<path d="M193.894 85.8129C193.894 83.9097 195.437 82.3669 197.34 82.3669H204.232C206.135 82.3669 207.678 83.9097 207.678 85.8129V224.099H193.894V85.8129Z" fill="white"/>
</clipPath>
<clipPath id="clip9_1_13781">
<path d="M227.488 106.489C227.488 104.586 229.031 103.043 230.934 103.043H237.826C239.729 103.043 241.272 104.586 241.272 106.489V224.099H227.488V106.489Z" fill="white"/>
</clipPath>
<clipPath id="clip10_1_13781">
<path d="M261.083 99.597C261.083 97.6938 262.626 96.1509 264.529 96.1509H271.421C273.324 96.1509 274.867 97.6938 274.867 99.597V224.099H261.083V99.597Z" fill="white"/>
</clipPath>
<clipPath id="clip11_1_13781">
<path d="M294.677 106.489C294.677 104.586 296.22 103.043 298.123 103.043H305.015C306.919 103.043 308.461 104.586 308.461 106.489V224.099H294.677V106.489Z" fill="white"/>
</clipPath>
<clipPath id="clip12_1_13781">
<path d="M328.272 92.7049C328.272 90.8018 329.815 89.2589 331.718 89.2589H338.61C340.513 89.2589 342.056 90.8017 342.056 92.7049V224.099H328.272V92.7049Z" fill="white"/>
</clipPath>
<clipPath id="clip13_1_13781">
<path d="M361.866 78.9209C361.866 77.0177 363.409 75.4749 365.312 75.4749H372.204C374.108 75.4749 375.65 77.0177 375.65 78.9209V224.099H361.866V78.9209Z" fill="white"/>
</clipPath>
<clipPath id="clip14_1_13781">
<path d="M395.461 113.381C395.461 111.478 397.004 109.935 398.907 109.935H405.799C407.702 109.935 409.245 111.478 409.245 113.381V224.099H395.461V113.381Z" fill="white"/>
</clipPath>
</defs>
</svg>
