<svg width="46" height="17" viewBox="0 0 46 17" fill="none" xmlns="http://www.w3.org/2000/svg">
<path d="M5.61603 1.364C5.08803 1.39333 4.69936 1.452 4.45003 1.54C4.21536 1.628 4.05403 1.79667 3.96603 2.046C3.87803 2.29533 3.83403 2.69867 3.83403 3.256V14.168C3.83403 14.7253 3.87803 15.1287 3.96603 15.378C4.05403 15.6273 4.21536 15.796 4.45003 15.884C4.69936 15.9573 5.08803 15.994 5.61603 15.994H7.22203C8.13136 15.994 8.8207 15.8693 9.29003 15.62C9.77403 15.356 10.126 14.938 10.346 14.366C10.566 13.794 10.7274 12.9653 10.83 11.88H11.336C11.292 12.3347 11.27 12.936 11.27 13.684C11.27 14.52 11.3214 15.4587 11.424 16.5C10.4267 16.456 8.74737 16.434 6.38603 16.434C3.57003 16.434 1.44336 16.456 0.00603132 16.5V16.06C0.534031 16.0307 0.915365 15.972 1.15003 15.884C1.39936 15.796 1.56803 15.6273 1.65603 15.378C1.74403 15.1287 1.78803 14.7253 1.78803 14.168V3.256C1.78803 2.69867 1.74403 2.29533 1.65603 2.046C1.56803 1.79667 1.39936 1.628 1.15003 1.54C0.915365 1.452 0.534031 1.39333 0.00603132 1.364V0.924C0.622031 0.967999 1.5607 0.989999 2.82203 0.989999C3.99536 0.989999 4.9267 0.967999 5.61603 0.924V1.364ZM18.5496 3.564C18.0216 3.59333 17.633 3.652 17.3836 3.74C17.149 3.828 16.9876 3.99667 16.8996 4.246C16.8116 4.49533 16.7676 4.89867 16.7676 5.456V14.168C16.7676 14.7253 16.8116 15.1287 16.8996 15.378C16.9876 15.6273 17.149 15.796 17.3836 15.884C17.633 15.972 18.0216 16.0307 18.5496 16.06V16.5C17.875 16.456 16.9436 16.434 15.7556 16.434C14.4943 16.434 13.5556 16.456 12.9396 16.5V16.06C13.4676 16.0307 13.849 15.972 14.0836 15.884C14.333 15.796 14.5016 15.6273 14.5896 15.378C14.6776 15.1287 14.7216 14.7253 14.7216 14.168V5.456C14.7216 4.89867 14.6776 4.49533 14.5896 4.246C14.5016 3.99667 14.333 3.828 14.0836 3.74C13.849 3.652 13.4676 3.59333 12.9396 3.564V3.124C13.5556 3.168 14.4943 3.19 15.7556 3.19C16.929 3.19 17.8603 3.168 18.5496 3.124V3.564ZM32.6047 3.124C32.502 4.092 32.4507 4.95733 32.4507 5.72C32.4507 6.48267 32.4727 7.084 32.5167 7.524H32.0107C31.9227 6.49733 31.7834 5.71267 31.5927 5.17C31.402 4.62733 31.094 4.23867 30.6687 4.004C30.2434 3.75467 29.6347 3.63 28.8427 3.63H27.4347V13.948C27.4347 14.564 27.4934 15.0113 27.6107 15.29C27.728 15.5687 27.9334 15.7593 28.2267 15.862C28.52 15.9647 28.9967 16.0307 29.6567 16.06V16.5C28.894 16.456 27.816 16.434 26.4227 16.434C24.956 16.434 23.8707 16.456 23.1667 16.5V16.06C23.8267 16.0307 24.3034 15.9647 24.5967 15.862C24.89 15.7593 25.0954 15.5687 25.2127 15.29C25.33 15.0113 25.3887 14.564 25.3887 13.948V3.63H23.9807C23.1887 3.63 22.58 3.75467 22.1547 4.004C21.7294 4.23867 21.4214 4.62733 21.2307 5.17C21.04 5.71267 20.9007 6.49733 20.8127 7.524H20.3067C20.3507 7.05467 20.3727 6.45333 20.3727 5.72C20.3727 4.95733 20.3214 4.092 20.2187 3.124C21.436 3.168 23.504 3.19 26.4227 3.19C29.3267 3.19 31.3874 3.168 32.6047 3.124ZM44.0102 14.652C44.4062 15.5613 44.9122 16.0307 45.5282 16.06V16.5C44.9415 16.456 44.1568 16.434 43.1742 16.434C41.9128 16.434 40.9742 16.456 40.3582 16.5V16.06C40.9008 16.0307 41.2968 15.9573 41.5462 15.84C41.8102 15.7227 41.9422 15.5247 41.9422 15.246C41.9422 15.0113 41.8395 14.6667 41.6342 14.212L40.5122 11.704H35.1662L34.4182 13.354C34.1688 13.926 34.0442 14.3953 34.0442 14.762C34.0442 15.1433 34.1762 15.444 34.4402 15.664C34.7188 15.8693 35.1588 16.0013 35.7602 16.06V16.5C35.3202 16.456 34.6528 16.434 33.7582 16.434C32.8635 16.434 32.2255 16.456 31.8442 16.5V16.06C32.2402 15.9573 32.5775 15.7373 32.8562 15.4C33.1348 15.048 33.3988 14.586 33.6482 14.014L38.5102 3.014H38.8622L44.0102 14.652ZM40.3362 11.264L37.8502 5.676L35.3422 11.264H40.3362Z" fill="#112139"/>
</svg>
