<svg width="608" height="426" viewBox="0 0 608 426" fill="none" xmlns="http://www.w3.org/2000/svg">
<g opacity="0.6">
<path d="M220.276 182.599C220.276 -60.974 635.411 -100.158 635.411 332.98" stroke="#E1954E" stroke-width="4.23607" stroke-linecap="round" stroke-linejoin="bevel"/>
<path d="M211.806 182.599C211.806 -21.7909 69.8979 -28.1454 69.8979 187.894" stroke="#B353C9" stroke-width="4.23607" stroke-linecap="round" stroke-linejoin="bevel"/>
<path d="M228.749 186.835C278.523 91.5236 451.143 140.814 451.143 357.337" stroke="#4EE1C7" stroke-width="4.23607" stroke-linecap="round" stroke-linejoin="bevel"/>
<path d="M203.333 185.776C174.74 63.6065 10.5922 49.1631 10.5922 375.34" stroke="#EE77BE" stroke-width="4.23607" stroke-linecap="round" stroke-linejoin="bevel"/>
<path d="M231.924 206.427C231.924 197.372 224.565 190.012 215.51 190.012C206.454 190.012 199.095 197.372 199.095 206.427C199.095 218.738 215.51 236.521 215.51 236.521C215.51 236.521 231.924 218.738 231.924 206.427Z" fill="#7BC71A"/>
<g opacity="0.1" filter="url(#filter0_f_1_13417)">
<path d="M199.095 250.314C199.095 254.438 206.692 257.789 216.039 257.789C225.387 257.789 232.984 254.438 232.984 250.314C232.984 244.707 216.039 236.609 216.039 236.609C216.039 236.609 199.095 244.707 199.095 250.314Z" fill="url(#paint0_linear_1_13417)"/>
</g>
<path d="M205.449 205.898C205.449 200.655 209.738 196.366 214.98 196.366C220.222 196.366 224.511 200.655 224.511 205.898C224.511 211.14 220.27 215.429 214.98 215.429C209.738 215.429 205.449 211.14 205.449 205.898Z" fill="white"/>
<path d="M461.069 373.95C461.069 368.29 456.469 363.69 450.809 363.69C445.15 363.69 440.55 368.29 440.55 373.95C440.55 381.644 450.809 392.758 450.809 392.758C450.809 392.758 461.069 381.644 461.069 373.95Z" fill="#4EE1C7"/>
<g opacity="0.1" filter="url(#filter1_f_1_13417)">
<path d="M440.551 401.379C440.551 403.957 445.299 406.052 451.141 406.052C456.983 406.052 461.731 403.957 461.731 401.379C461.731 397.875 451.141 392.814 451.141 392.814C451.141 392.814 440.551 397.875 440.551 401.379Z" fill="url(#paint1_linear_1_13417)"/>
</g>
<path d="M444.785 374.281C444.785 370.786 447.645 367.927 451.139 367.927C454.634 367.927 457.493 370.786 457.493 374.281C457.493 377.776 454.666 380.635 451.139 380.635C447.645 380.635 444.785 377.776 444.785 374.281Z" fill="white"/>
<path d="M79.8225 202.39C79.8225 196.731 75.2229 192.131 69.5632 192.131C63.9036 192.131 59.304 196.731 59.304 202.39C59.304 210.085 69.5632 221.199 69.5632 221.199C69.5632 221.199 79.8225 210.085 79.8225 202.39Z" fill="#B353C9"/>
<g opacity="0.1" filter="url(#filter2_f_1_13417)">
<path d="M61.4226 229.82C61.4226 232.398 64.0525 234.492 69.8948 234.492C75.737 234.492 80.4849 232.398 80.4849 229.82C80.4849 226.316 69.8948 221.254 69.8948 221.254C69.8948 221.254 61.4226 226.316 61.4226 229.82Z" fill="url(#paint2_linear_1_13417)"/>
</g>
<path d="M63.5391 202.722C63.5391 199.227 66.3984 196.368 69.8932 196.368C73.3879 196.368 76.2473 199.227 76.2473 202.722C76.2473 206.216 73.4197 209.076 69.8932 209.076C66.3984 209.076 63.5391 206.216 63.5391 202.722Z" fill="white"/>
<path d="M20.5184 390.895C20.5184 385.236 15.9189 380.636 10.2592 380.636C4.59955 380.636 0 385.236 0 390.895C0 398.59 10.2592 409.704 10.2592 409.704C10.2592 409.704 20.5184 398.59 20.5184 390.895Z" fill="#EE77BE"/>
<g opacity="0.1" filter="url(#filter3_f_1_13417)">
<path d="M6.35468 418.325C6.35468 420.902 4.7485 422.997 10.5907 422.997C16.433 422.997 21.1809 420.902 21.1809 418.325C21.1809 414.821 10.5907 409.759 10.5907 409.759C10.5907 409.759 6.35468 413.922 6.35468 417.426L6.35468 418.325Z" fill="url(#paint3_linear_1_13417)"/>
</g>
<path d="M4.23505 391.226C4.23505 387.732 7.09439 384.872 10.5891 384.872C14.0839 384.872 16.9432 387.732 16.9432 391.226C16.9432 394.721 14.1157 397.581 10.5891 397.581C7.09439 397.581 4.23505 394.721 4.23505 391.226Z" fill="white"/>
</g>
<defs>
<filter id="filter0_f_1_13417" x="196.977" y="234.491" width="38.1246" height="25.4164" filterUnits="userSpaceOnUse" color-interpolation-filters="sRGB">
<feFlood flood-opacity="0" result="BackgroundImageFix"/>
<feBlend mode="normal" in="SourceGraphic" in2="BackgroundImageFix" result="shape"/>
<feGaussianBlur stdDeviation="1.05902" result="effect1_foregroundBlur_1_13417"/>
</filter>
<filter id="filter1_f_1_13417" x="438.433" y="390.696" width="25.4164" height="17.4738" filterUnits="userSpaceOnUse" color-interpolation-filters="sRGB">
<feFlood flood-opacity="0" result="BackgroundImageFix"/>
<feBlend mode="normal" in="SourceGraphic" in2="BackgroundImageFix" result="shape"/>
<feGaussianBlur stdDeviation="1.05902" result="effect1_foregroundBlur_1_13417"/>
</filter>
<filter id="filter2_f_1_13417" x="59.3046" y="219.136" width="23.2984" height="17.4738" filterUnits="userSpaceOnUse" color-interpolation-filters="sRGB">
<feFlood flood-opacity="0" result="BackgroundImageFix"/>
<feBlend mode="normal" in="SourceGraphic" in2="BackgroundImageFix" result="shape"/>
<feGaussianBlur stdDeviation="1.05902" result="effect1_foregroundBlur_1_13417"/>
</filter>
<filter id="filter3_f_1_13417" x="4.03449" y="407.641" width="19.2644" height="17.4738" filterUnits="userSpaceOnUse" color-interpolation-filters="sRGB">
<feFlood flood-opacity="0" result="BackgroundImageFix"/>
<feBlend mode="normal" in="SourceGraphic" in2="BackgroundImageFix" result="shape"/>
<feGaussianBlur stdDeviation="1.05902" result="effect1_foregroundBlur_1_13417"/>
</filter>
<linearGradient id="paint0_linear_1_13417" x1="216.039" y1="257.789" x2="216.039" y2="236.609" gradientUnits="userSpaceOnUse">
<stop stop-color="#2F3A4B" stop-opacity="0"/>
<stop offset="1" stop-color="#2F3A4B"/>
</linearGradient>
<linearGradient id="paint1_linear_1_13417" x1="451.141" y1="406.052" x2="451.141" y2="392.814" gradientUnits="userSpaceOnUse">
<stop stop-color="#2F3A4B" stop-opacity="0"/>
<stop offset="1" stop-color="#2F3A4B"/>
</linearGradient>
<linearGradient id="paint2_linear_1_13417" x1="69.8948" y1="234.492" x2="69.8948" y2="221.254" gradientUnits="userSpaceOnUse">
<stop stop-color="#2F3A4B" stop-opacity="0"/>
<stop offset="1" stop-color="#2F3A4B"/>
</linearGradient>
<linearGradient id="paint3_linear_1_13417" x1="10.5907" y1="422.997" x2="10.5907" y2="409.759" gradientUnits="userSpaceOnUse">
<stop stop-color="#2F3A4B" stop-opacity="0"/>
<stop offset="1" stop-color="#2F3A4B"/>
</linearGradient>
</defs>
</svg>
