<svg width="415" height="219" viewBox="0 0 415 219" fill="none" xmlns="http://www.w3.org/2000/svg">
<g filter="url(#filter0_d_1_13515)">
<rect x="5" y="7" width="405" height="209" rx="12" fill="white"/>
<rect x="5.5" y="7.5" width="404" height="208" rx="11.5" stroke="#EAECF0"/>
<path d="M34.04 53V40.6H29.42V38.7H40.88V40.6H36.26V53H34.04ZM39.9033 42.8H41.8633V44.74H41.9033C42.4233 43.46 43.2633 42.56 44.6433 42.56C45.0033 42.56 45.2833 42.58 45.5833 42.62V44.5C45.3233 44.46 45.1433 44.44 44.9233 44.44C43.1433 44.44 41.8633 45.78 41.8633 47.72V53H39.9033V42.8ZM49.2481 53.28C47.2081 53.28 45.9081 52.1 45.9081 50.36C45.9081 48.08 47.6281 47.42 50.1681 46.92C51.7681 46.62 52.7481 46.42 52.7481 45.42C52.7481 44.68 52.3081 44.06 50.8081 44.06C49.0281 44.06 48.4881 44.62 48.3881 45.98H46.3881C46.4881 44.02 47.7681 42.48 50.8881 42.48C52.9881 42.48 54.6681 43.36 54.6681 46V50.68C54.6681 51.42 54.7681 51.8 55.1481 51.8C55.2081 51.8 55.2681 51.8 55.3881 51.78V52.98C55.0481 53.06 54.7081 53.1 54.3881 53.1C53.4281 53.1 52.8881 52.72 52.7881 51.56H52.7481C52.0681 52.62 50.9081 53.28 49.2481 53.28ZM49.6881 51.7C51.4481 51.7 52.7481 50.8 52.7481 49.02V47.56C52.4281 47.86 51.5481 48.08 50.5081 48.3C48.7081 48.68 47.9681 49.16 47.9681 50.22C47.9681 51.18 48.4681 51.7 49.6881 51.7ZM63.9569 46.5C63.8769 45.44 63.2769 44.12 61.3969 44.12C59.2369 44.12 58.4369 45.98 58.4369 47.9C58.4369 49.82 59.2369 51.66 61.3969 51.66C63.2769 51.66 63.8769 50.38 63.9569 49.22H65.9969C65.8569 51.56 64.0169 53.3 61.4169 53.3C58.3769 53.3 56.3969 51.1 56.3969 47.9C56.3969 44.7 58.3769 42.5 61.3969 42.5C64.0169 42.5 65.7569 44.2 65.9969 46.5H63.9569ZM67.5595 53V38.7H69.5195V47.12L73.9795 42.8H76.2195L72.2995 46.54L76.6395 53H74.3395L70.9995 47.78L69.5195 49.2V53H67.5595ZM77.4586 38.86H79.6786V40.98H77.4586V38.86ZM77.5986 42.8H79.5586V53H77.5986V42.8ZM81.7392 53V42.8H83.6992V44.08H83.7392C84.2792 43.3 85.3392 42.5 87.0992 42.5C88.9792 42.5 90.4992 43.58 90.4992 45.92V53H88.5192V46.46C88.5192 45.1 87.9192 44.18 86.4592 44.18C84.7792 44.18 83.6992 45.2 83.6992 46.74V53H81.7392ZM99.7214 52.32V50.94H99.6814C99.1214 51.76 98.1814 52.48 96.5414 52.48C94.0014 52.48 92.0414 50.76 92.0414 47.5C92.0414 44.22 94.0014 42.5 96.5414 42.5C98.1814 42.5 99.1214 43.28 99.6814 44H99.7214V42.8H101.681V52.2C101.681 55.28 99.8214 56.66 96.9014 56.66C93.9814 56.66 92.5214 55.26 92.3214 53.42H94.3414C94.5414 54.34 95.2414 55.06 96.9014 55.06C98.7614 55.06 99.7214 54.24 99.7214 52.32ZM96.9014 44.14C94.9814 44.14 94.0814 45.58 94.0814 47.5C94.0814 49.42 94.9814 50.86 96.9014 50.86C98.6614 50.86 99.7014 49.72 99.7014 47.5C99.7014 45.26 98.6614 44.14 96.9014 44.14ZM118.505 43.56C118.245 42.16 117.365 40.32 114.625 40.32C111.465 40.32 110.265 43 110.265 45.84C110.265 48.7 111.465 51.38 114.625 51.38C117.385 51.38 118.365 49.54 118.505 47.8H120.805C120.485 50.98 118.265 53.28 114.645 53.28C110.585 53.28 107.985 50.16 107.985 45.86C107.985 41.54 110.605 38.42 114.665 38.42C118.265 38.42 120.465 40.7 120.805 43.56H118.505ZM127.239 53.3C124.059 53.3 122.139 51.1 122.139 47.9C122.139 44.72 124.059 42.48 127.239 42.48C130.419 42.48 132.339 44.7 132.339 47.88C132.339 51.08 130.419 53.3 127.239 53.3ZM127.239 51.68C129.319 51.68 130.299 50.02 130.299 47.9C130.299 45.76 129.319 44.12 127.239 44.12C125.139 44.12 124.179 45.76 124.179 47.9C124.179 50.02 125.139 51.68 127.239 51.68ZM141.226 44.04H141.266V38.7H143.246V53H141.266V51.8H141.226C140.686 52.52 139.686 53.28 138.086 53.28C135.486 53.28 133.526 51.26 133.526 47.9C133.526 44.54 135.486 42.5 138.086 42.5C139.686 42.5 140.686 43.24 141.226 44.04ZM138.406 51.66C140.166 51.66 141.266 50.2 141.266 47.9C141.266 45.58 140.166 44.14 138.406 44.14C136.486 44.14 135.566 45.9 135.566 47.9C135.566 49.9 136.486 51.66 138.406 51.66ZM149.913 53.3C146.673 53.3 144.873 51 144.873 47.88C144.873 44.68 146.793 42.48 149.913 42.48C153.013 42.48 154.753 44.52 154.753 47.68C154.753 47.96 154.753 48.26 154.733 48.42H146.893C146.933 50.14 147.933 51.7 149.953 51.7C151.753 51.7 152.433 50.54 152.633 49.86H154.613C154.093 51.82 152.593 53.3 149.913 53.3ZM149.853 44.08C148.213 44.08 147.013 45.2 146.893 46.88H152.693C152.693 45.28 151.593 44.08 149.853 44.08ZM160.782 44.7H162.962V46.88H160.782V44.7ZM160.782 50.82H162.962V53H160.782V50.82Z" fill="#344054"/>
<path d="M172.434 39.18H174.154V53H171.994V42.74C171.414 43.3 170.334 43.4 169.094 43.4V41.64C171.534 41.58 172.274 40.84 172.434 39.18ZM178.703 44.06H176.503C176.503 41.12 178.083 38.9 181.583 38.9C184.083 38.9 186.122 40.4 186.122 43.04C186.122 45.72 183.943 47.08 181.943 48.32C180.603 49.12 179.323 49.88 178.923 51.1V51.14H185.963V53H176.143C176.143 50.4 177.723 48.62 180.363 46.96C182.703 45.54 183.863 44.96 183.863 43.12C183.863 41.98 183.423 40.76 181.523 40.76C179.363 40.76 178.703 42.16 178.703 44.06ZM190.092 43.34H187.892C187.892 40.78 189.632 38.9 193.032 38.9C195.492 38.9 197.632 40.26 197.632 42.7C197.632 44.18 196.872 45.1 195.532 45.66V45.7C197.352 46.28 198.112 47.48 198.112 49.1C198.112 51.78 196.132 53.28 193.092 53.28C189.532 53.28 187.532 51.44 187.532 48.28H189.732C189.732 50.18 190.532 51.42 192.952 51.42C195.132 51.42 195.852 50.54 195.852 49.06C195.852 47.16 194.492 46.7 193.112 46.7H191.812V44.92H193.032C194.392 44.92 195.372 44.3 195.372 42.8C195.372 41.72 194.732 40.76 193.012 40.76C190.692 40.76 190.092 42 190.092 43.34ZM208.323 53H206.143V49.84H199.583V47.84L206.143 39.18H208.323V47.98H210.243V49.84H208.323V53ZM206.143 41.96L201.563 47.98H206.143V41.96ZM217.217 43.7C219.837 43.7 221.657 45.64 221.657 48.28C221.657 51.34 219.457 53.28 216.617 53.28C213.317 53.28 211.517 51.28 211.437 48.96H213.637C213.777 50.22 214.517 51.42 216.497 51.42C218.257 51.42 219.417 50.34 219.417 48.28C219.417 46.34 218.357 45.46 216.637 45.46C215.517 45.46 214.497 45.84 213.837 46.7H211.617L213.097 39.18H220.957V41.04H214.757L213.997 44.86V44.9C214.717 44.16 215.737 43.7 217.217 43.7ZM225.539 45.68L225.579 45.7C226.299 44.54 227.579 43.88 229.139 43.88C231.839 43.88 233.699 45.76 233.699 48.48C233.699 51.16 231.819 53.28 228.739 53.28C224.799 53.28 223.379 50.34 223.379 46.12C223.379 41.58 225.359 38.9 228.779 38.9C231.379 38.9 233.059 40.62 233.319 42.68H231.079C230.919 41.54 230.239 40.7 228.779 40.7C226.199 40.7 225.579 43.1 225.539 45.48V45.68ZM228.699 51.48C230.499 51.48 231.499 50.34 231.499 48.6C231.499 46.78 230.439 45.7 228.819 45.7C226.939 45.7 225.779 46.9 225.779 48.64C225.779 50.32 226.819 51.48 228.699 51.48ZM234.66 39.18H244.36V40.84C241.22 43.46 238.98 48.58 238.98 53H236.7C236.7 48.42 239.54 43.26 242 41.08V41.04H234.66V39.18ZM250.334 53.28C247.334 53.28 245.034 51.9 245.034 49.1C245.034 47.2 246.274 46.24 247.594 45.66V45.62C246.614 45.1 245.714 44.22 245.714 42.66C245.714 40.28 247.654 38.9 250.334 38.9C253.014 38.9 254.954 40.28 254.954 42.66C254.954 44.22 254.034 45.1 253.074 45.62V45.66C254.374 46.24 255.634 47.2 255.634 49.1C255.634 51.9 253.334 53.28 250.334 53.28ZM250.334 44.8C251.894 44.8 252.814 44.14 252.814 42.74C252.814 41.36 251.894 40.66 250.334 40.66C248.774 40.66 247.854 41.36 247.854 42.74C247.854 44.14 248.774 44.8 250.334 44.8ZM250.334 51.48C252.254 51.48 253.394 50.56 253.394 48.98C253.394 47.44 252.254 46.52 250.334 46.52C248.414 46.52 247.274 47.44 247.274 48.98C247.274 50.56 248.414 51.48 250.334 51.48ZM265.326 46.5L265.286 46.48C264.566 47.64 263.286 48.3 261.726 48.3C259.026 48.3 257.166 46.42 257.166 43.7C257.166 41.02 259.046 38.9 262.126 38.9C266.066 38.9 267.486 41.84 267.486 46.06C267.486 50.6 265.506 53.28 262.086 53.28C259.486 53.28 257.806 51.56 257.546 49.5H259.786C259.946 50.64 260.626 51.48 262.086 51.48C264.666 51.48 265.286 49.08 265.326 46.7V46.5ZM262.166 40.7C260.366 40.7 259.366 41.84 259.366 43.58C259.366 45.4 260.426 46.48 262.046 46.48C263.926 46.48 265.086 45.28 265.086 43.54C265.086 41.86 264.046 40.7 262.166 40.7ZM272.2 39.18H273.92V53H271.76V42.74C271.18 43.3 270.1 43.4 268.86 43.4V41.64C271.3 41.58 272.04 40.84 272.2 39.18Z" fill="#101828"/>
<path d="M29.896 84V73.99H33.704C36.476 73.99 38.156 75.782 38.156 79.002C38.156 82.222 36.504 84 33.732 84H29.896ZM31.436 75.32V82.67H33.634C35.958 82.67 36.56 80.934 36.56 79.002C36.56 77.07 35.958 75.32 33.634 75.32H31.436ZM41.2596 84.196C39.8316 84.196 38.9216 83.37 38.9216 82.152C38.9216 80.556 40.1256 80.094 41.9036 79.744C43.0236 79.534 43.7096 79.394 43.7096 78.694C43.7096 78.176 43.4016 77.742 42.3516 77.742C41.1056 77.742 40.7276 78.134 40.6576 79.086H39.2576C39.3276 77.714 40.2236 76.636 42.4076 76.636C43.8776 76.636 45.0536 77.252 45.0536 79.1V82.376C45.0536 82.894 45.1236 83.16 45.3896 83.16C45.4316 83.16 45.4736 83.16 45.5576 83.146V83.986C45.3196 84.042 45.0816 84.07 44.8576 84.07C44.1856 84.07 43.8076 83.804 43.7376 82.992H43.7096C43.2336 83.734 42.4216 84.196 41.2596 84.196ZM41.5676 83.09C42.7996 83.09 43.7096 82.46 43.7096 81.214V80.192C43.4856 80.402 42.8696 80.556 42.1416 80.71C40.8816 80.976 40.3636 81.312 40.3636 82.054C40.3636 82.726 40.7136 83.09 41.5676 83.09ZM45.836 76.86H46.872V74.564H48.244V76.86H49.616V77.994H48.244V82.026C48.244 82.782 48.454 82.95 49.042 82.95C49.266 82.95 49.378 82.936 49.63 82.894V84C49.266 84.07 49.056 84.084 48.748 84.084C47.586 84.084 46.872 83.636 46.872 81.984V77.994H45.836V76.86ZM53.7566 84.21C51.4886 84.21 50.2286 82.6 50.2286 80.416C50.2286 78.176 51.5726 76.636 53.7566 76.636C55.9266 76.636 57.1446 78.064 57.1446 80.276C57.1446 80.472 57.1446 80.682 57.1306 80.794H51.6426C51.6706 81.998 52.3706 83.09 53.7846 83.09C55.0446 83.09 55.5206 82.278 55.6606 81.802H57.0466C56.6826 83.174 55.6326 84.21 53.7566 84.21ZM53.7146 77.756C52.5666 77.756 51.7266 78.54 51.6426 79.716H55.7026C55.7026 78.596 54.9326 77.756 53.7146 77.756ZM62.7784 83.118H62.7504V86.478H61.3784V76.86H62.7504V77.7H62.7784C63.1704 77.196 63.8564 76.65 64.9764 76.65C66.7964 76.65 68.1824 78.078 68.1824 80.43C68.1824 82.782 66.7964 84.196 64.9764 84.196C63.8564 84.196 63.1704 83.692 62.7784 83.118ZM64.7524 77.798C63.5204 77.798 62.7644 78.806 62.7644 80.43C62.7644 82.04 63.5204 83.062 64.7524 83.062C66.0964 83.062 66.7404 81.83 66.7404 80.43C66.7404 79.03 66.0964 77.798 64.7524 77.798ZM69.2238 74.102H70.7778V75.586H69.2238V74.102ZM69.3218 76.86H70.6938V84H69.3218V76.86ZM77.1222 79.45C77.0662 78.708 76.6462 77.784 75.3302 77.784C73.8182 77.784 73.2582 79.086 73.2582 80.43C73.2582 81.774 73.8182 83.062 75.3302 83.062C76.6462 83.062 77.0662 82.166 77.1222 81.354H78.5502C78.4522 82.992 77.1642 84.21 75.3442 84.21C73.2162 84.21 71.8302 82.67 71.8302 80.43C71.8302 78.19 73.2162 76.65 75.3302 76.65C77.1642 76.65 78.3822 77.84 78.5502 79.45H77.1222ZM79.644 84V73.99H81.016V79.884L84.138 76.86H85.706L82.962 79.478L86 84H84.39L82.052 80.346L81.016 81.34V84H79.644ZM89.4539 84.21C87.1859 84.21 85.9259 82.6 85.9259 80.416C85.9259 78.176 87.2699 76.636 89.4539 76.636C91.6239 76.636 92.8419 78.064 92.8419 80.276C92.8419 80.472 92.8419 80.682 92.8279 80.794H87.3399C87.3679 81.998 88.0679 83.09 89.4819 83.09C90.7419 83.09 91.2179 82.278 91.3579 81.802H92.7439C92.3799 83.174 91.3299 84.21 89.4539 84.21ZM89.4119 77.756C88.2639 77.756 87.4239 78.54 87.3399 79.716H91.3999C91.3999 78.596 90.6299 77.756 89.4119 77.756ZM99.0678 77.728H99.0958V73.99H100.482V84H99.0958V83.16H99.0678C98.6898 83.664 97.9898 84.196 96.8698 84.196C95.0498 84.196 93.6778 82.782 93.6778 80.43C93.6778 78.078 95.0498 76.65 96.8698 76.65C97.9898 76.65 98.6898 77.168 99.0678 77.728ZM97.0938 83.062C98.3258 83.062 99.0958 82.04 99.0958 80.43C99.0958 78.806 98.3258 77.798 97.0938 77.798C95.7498 77.798 95.1058 79.03 95.1058 80.43C95.1058 81.83 95.7498 83.062 97.0938 83.062ZM106.335 81.424C106.335 82.39 106.755 83.034 107.777 83.034C108.953 83.034 109.709 82.32 109.709 81.242V76.86H111.081V84H109.709V83.104H109.681C109.303 83.65 108.561 84.196 107.329 84.196C106.013 84.196 104.949 83.44 104.949 81.802V76.86H106.335V81.424ZM114.021 83.118H113.993V86.478H112.621V76.86H113.993V77.7H114.021C114.413 77.196 115.099 76.65 116.219 76.65C118.039 76.65 119.425 78.078 119.425 80.43C119.425 82.782 118.039 84.196 116.219 84.196C115.099 84.196 114.413 83.692 114.021 83.118ZM115.995 77.798C114.763 77.798 114.007 78.806 114.007 80.43C114.007 82.04 114.763 83.062 115.995 83.062C117.339 83.062 117.983 81.83 117.983 80.43C117.983 79.03 117.339 77.798 115.995 77.798Z" fill="#475467"/>
<path d="M30.024 111V99.56H34.376C37.544 99.56 39.464 101.608 39.464 105.288C39.464 108.968 37.576 111 34.408 111H30.024ZM31.784 101.08V109.48H34.296C36.952 109.48 37.64 107.496 37.64 105.288C37.64 103.08 36.952 101.08 34.296 101.08H31.784ZM44.6526 111.24C42.0606 111.24 40.6206 109.4 40.6206 106.904C40.6206 104.344 42.1566 102.584 44.6526 102.584C47.1326 102.584 48.5246 104.216 48.5246 106.744C48.5246 106.968 48.5246 107.208 48.5086 107.336H42.2366C42.2686 108.712 43.0686 109.96 44.6846 109.96C46.1246 109.96 46.6686 109.032 46.8286 108.488H48.4126C47.9966 110.056 46.7966 111.24 44.6526 111.24ZM44.6046 103.864C43.2926 103.864 42.3326 104.76 42.2366 106.104H46.8766C46.8766 104.824 45.9966 103.864 44.6046 103.864ZM55.528 105.8C55.464 104.952 54.984 103.896 53.48 103.896C51.752 103.896 51.112 105.384 51.112 106.92C51.112 108.456 51.752 109.928 53.48 109.928C54.984 109.928 55.464 108.904 55.528 107.976H57.16C57.048 109.848 55.576 111.24 53.496 111.24C51.064 111.24 49.48 109.48 49.48 106.92C49.48 104.36 51.064 102.6 53.48 102.6C55.576 102.6 56.968 103.96 57.16 105.8H55.528ZM63.6214 103.848H61.8614C61.8614 101.496 63.1254 99.72 65.9254 99.72C67.9254 99.72 69.5574 100.92 69.5574 103.032C69.5574 105.176 67.8134 106.264 66.2134 107.256C65.1414 107.896 64.1174 108.504 63.7974 109.48V109.512H69.4294V111H61.5734C61.5734 108.92 62.8374 107.496 64.9494 106.168C66.8214 105.032 67.7494 104.568 67.7494 103.096C67.7494 102.184 67.3974 101.208 65.8774 101.208C64.1494 101.208 63.6214 102.328 63.6214 103.848ZM77.5136 105.8L77.4816 105.784C76.9056 106.712 75.8816 107.24 74.6336 107.24C72.4736 107.24 70.9856 105.736 70.9856 103.56C70.9856 101.416 72.4896 99.72 74.9536 99.72C78.1056 99.72 79.2416 102.072 79.2416 105.448C79.2416 109.08 77.6576 111.224 74.9216 111.224C72.8416 111.224 71.4976 109.848 71.2896 108.2H73.0816C73.2096 109.112 73.7536 109.784 74.9216 109.784C76.9856 109.784 77.4816 107.864 77.5136 105.96V105.8ZM74.9856 101.16C73.5456 101.16 72.7456 102.072 72.7456 103.464C72.7456 104.92 73.5936 105.784 74.8896 105.784C76.3936 105.784 77.3216 104.824 77.3216 103.432C77.3216 102.088 76.4896 101.16 74.9856 101.16ZM80.345 113.176V112.312C80.937 112.136 81.193 111.832 81.177 111H80.345V109.256H82.089V111C82.089 112.04 81.641 112.856 80.345 113.176ZM88.9495 103.848H87.1895C87.1895 101.496 88.4535 99.72 91.2535 99.72C93.2535 99.72 94.8855 100.92 94.8855 103.032C94.8855 105.176 93.1415 106.264 91.5415 107.256C90.4695 107.896 89.4455 108.504 89.1255 109.48V109.512H94.7575V111H86.9015C86.9015 108.92 88.1655 107.496 90.2775 106.168C92.1495 105.032 93.0775 104.568 93.0775 103.096C93.0775 102.184 92.7255 101.208 91.2055 101.208C89.4775 101.208 88.9495 102.328 88.9495 103.848ZM100.543 111.224C97.4554 111.224 96.1434 108.648 96.1434 105.48C96.1434 102.312 97.4554 99.72 100.543 99.72C103.631 99.72 104.943 102.312 104.943 105.48C104.943 108.648 103.631 111.224 100.543 111.224ZM100.543 109.736C102.543 109.736 103.135 107.752 103.135 105.48C103.135 103.208 102.543 101.208 100.543 101.208C98.5594 101.208 97.9514 103.208 97.9514 105.48C97.9514 107.752 98.5594 109.736 100.543 109.736ZM108.012 103.848H106.252C106.252 101.496 107.516 99.72 110.316 99.72C112.316 99.72 113.948 100.92 113.948 103.032C113.948 105.176 112.204 106.264 110.604 107.256C109.532 107.896 108.508 108.504 108.188 109.48V109.512H113.82V111H105.964C105.964 108.92 107.228 107.496 109.34 106.168C111.212 105.032 112.14 104.568 112.14 103.096C112.14 102.184 111.788 101.208 110.268 101.208C108.54 101.208 108.012 102.328 108.012 103.848ZM117.124 103.272H115.364C115.364 101.224 116.756 99.72 119.476 99.72C121.444 99.72 123.156 100.808 123.156 102.76C123.156 103.944 122.548 104.68 121.476 105.128V105.16C122.932 105.624 123.54 106.584 123.54 107.88C123.54 110.024 121.956 111.224 119.524 111.224C116.676 111.224 115.076 109.752 115.076 107.224H116.836C116.836 108.744 117.476 109.736 119.412 109.736C121.156 109.736 121.732 109.032 121.732 107.848C121.732 106.328 120.644 105.96 119.54 105.96H118.5V104.536H119.476C120.564 104.536 121.348 104.04 121.348 102.84C121.348 101.976 120.836 101.208 119.46 101.208C117.604 101.208 117.124 102.2 117.124 103.272Z" fill="#101828"/>
<path d="M161.7 93.1061H152.75" stroke="#344054" stroke-width="1.5" stroke-linecap="round" stroke-linejoin="round"/>
<path fill-rule="evenodd" clip-rule="evenodd" d="M169.354 93.1002C169.354 91.8442 162.99 87.8292 162.268 88.5512C161.546 89.2732 161.477 96.8582 162.268 97.6492C163.06 98.4402 169.354 94.3552 169.354 93.1002Z" stroke="#344054" stroke-width="1.5" stroke-linecap="round" stroke-linejoin="round"/>
<path d="M199.436 78.162H204.294V79.492H199.436V82.67H205.12V84H197.896V73.99H204.98V75.32H199.436V78.162ZM209.23 79.688C210.532 79.996 211.96 80.374 211.96 81.97C211.96 83.356 210.896 84.196 209.02 84.196C206.85 84.196 205.772 83.076 205.73 81.62H207.116C207.186 82.446 207.676 83.09 209.006 83.09C210.21 83.09 210.532 82.558 210.532 82.04C210.532 81.144 209.58 81.046 208.656 80.85C207.41 80.57 205.982 80.192 205.982 78.708C205.982 77.476 206.976 76.65 208.712 76.65C210.658 76.65 211.596 77.7 211.694 78.932H210.308C210.21 78.386 209.93 77.756 208.726 77.756C207.816 77.756 207.41 78.12 207.41 78.652C207.41 79.394 208.208 79.45 209.23 79.688ZM212.4 76.86H213.436V74.564H214.808V76.86H216.18V77.994H214.808V82.026C214.808 82.782 215.018 82.95 215.606 82.95C215.83 82.95 215.942 82.936 216.194 82.894V84C215.83 84.07 215.62 84.084 215.312 84.084C214.15 84.084 213.436 83.636 213.436 81.984V77.994H212.4V76.86ZM217.318 74.102H218.872V75.586H217.318V74.102ZM217.416 76.86H218.788V84H217.416V76.86ZM220.314 84V76.86H221.686V77.756H221.714C222.092 77.21 222.75 76.65 223.828 76.65C224.822 76.65 225.424 77.098 225.718 77.896H225.746C226.264 77.21 226.978 76.65 228.084 76.65C229.526 76.65 230.254 77.518 230.254 79.044V84H228.882V79.422C228.882 78.47 228.686 77.826 227.636 77.826C226.614 77.826 225.97 78.54 225.97 79.618V84H224.598V79.422C224.598 78.47 224.402 77.826 223.352 77.826C222.33 77.826 221.686 78.54 221.686 79.618V84H220.314ZM233.664 84.196C232.236 84.196 231.326 83.37 231.326 82.152C231.326 80.556 232.53 80.094 234.308 79.744C235.428 79.534 236.114 79.394 236.114 78.694C236.114 78.176 235.806 77.742 234.756 77.742C233.51 77.742 233.132 78.134 233.062 79.086H231.662C231.732 77.714 232.628 76.636 234.812 76.636C236.282 76.636 237.458 77.252 237.458 79.1V82.376C237.458 82.894 237.528 83.16 237.794 83.16C237.836 83.16 237.878 83.16 237.962 83.146V83.986C237.724 84.042 237.486 84.07 237.262 84.07C236.59 84.07 236.212 83.804 236.142 82.992H236.114C235.638 83.734 234.826 84.196 233.664 84.196ZM233.972 83.09C235.204 83.09 236.114 82.46 236.114 81.214V80.192C235.89 80.402 235.274 80.556 234.546 80.71C233.286 80.976 232.768 81.312 232.768 82.054C232.768 82.726 233.118 83.09 233.972 83.09ZM238.24 76.86H239.276V74.564H240.648V76.86H242.02V77.994H240.648V82.026C240.648 82.782 240.858 82.95 241.446 82.95C241.67 82.95 241.782 82.936 242.034 82.894V84C241.67 84.07 241.46 84.084 241.152 84.084C239.99 84.084 239.276 83.636 239.276 81.984V77.994H238.24V76.86ZM246.161 84.21C243.893 84.21 242.633 82.6 242.633 80.416C242.633 78.176 243.977 76.636 246.161 76.636C248.331 76.636 249.549 78.064 249.549 80.276C249.549 80.472 249.549 80.682 249.535 80.794H244.047C244.075 81.998 244.775 83.09 246.189 83.09C247.449 83.09 247.925 82.278 248.065 81.802H249.451C249.087 83.174 248.037 84.21 246.161 84.21ZM246.119 77.756C244.971 77.756 244.131 78.54 244.047 79.716H248.107C248.107 78.596 247.337 77.756 246.119 77.756ZM255.775 77.728H255.803V73.99H257.189V84H255.803V83.16H255.775C255.397 83.664 254.697 84.196 253.577 84.196C251.757 84.196 250.385 82.782 250.385 80.43C250.385 78.078 251.757 76.65 253.577 76.65C254.697 76.65 255.397 77.168 255.775 77.728ZM253.801 83.062C255.033 83.062 255.803 82.04 255.803 80.43C255.803 78.806 255.033 77.798 253.801 77.798C252.457 77.798 251.813 79.03 251.813 80.43C251.813 81.83 252.457 83.062 253.801 83.062ZM266.808 77.728H266.836V73.99H268.222V84H266.836V83.16H266.808C266.43 83.664 265.73 84.196 264.61 84.196C262.79 84.196 261.418 82.782 261.418 80.43C261.418 78.078 262.79 76.65 264.61 76.65C265.73 76.65 266.43 77.168 266.808 77.728ZM264.834 83.062C266.066 83.062 266.836 82.04 266.836 80.43C266.836 78.806 266.066 77.798 264.834 77.798C263.49 77.798 262.846 79.03 262.846 80.43C262.846 81.83 263.49 83.062 264.834 83.062ZM272.889 84.21C270.621 84.21 269.361 82.6 269.361 80.416C269.361 78.176 270.705 76.636 272.889 76.636C275.059 76.636 276.277 78.064 276.277 80.276C276.277 80.472 276.277 80.682 276.263 80.794H270.775C270.803 81.998 271.503 83.09 272.917 83.09C274.177 83.09 274.653 82.278 274.793 81.802H276.179C275.815 83.174 274.765 84.21 272.889 84.21ZM272.847 77.756C271.699 77.756 270.859 78.54 270.775 79.716H274.835C274.835 78.596 274.065 77.756 272.847 77.756ZM277.421 73.99H278.793V84H277.421V73.99ZM280.222 74.102H281.776V75.586H280.222V74.102ZM280.32 76.86H281.692V84H280.32V76.86ZM282.479 76.86H283.949L285.811 82.586H285.839L287.673 76.86H289.115L286.567 84H285.027L282.479 76.86ZM292.837 84.21C290.569 84.21 289.309 82.6 289.309 80.416C289.309 78.176 290.653 76.636 292.837 76.636C295.007 76.636 296.225 78.064 296.225 80.276C296.225 80.472 296.225 80.682 296.211 80.794H290.723C290.751 81.998 291.451 83.09 292.865 83.09C294.125 83.09 294.601 82.278 294.741 81.802H296.127C295.763 83.174 294.713 84.21 292.837 84.21ZM292.795 77.756C291.647 77.756 290.807 78.54 290.723 79.716H294.783C294.783 78.596 294.013 77.756 292.795 77.756ZM297.369 76.86H298.741V78.218H298.769C299.133 77.322 299.721 76.692 300.687 76.692C300.939 76.692 301.135 76.706 301.345 76.734V78.05C301.163 78.022 301.037 78.008 300.883 78.008C299.637 78.008 298.741 78.946 298.741 80.304V84H297.369V76.86ZM304.599 83.93L301.701 76.86H303.199L305.285 82.32H305.313L307.287 76.86H308.715L305.901 84.168C305.201 85.932 304.515 86.506 303.409 86.506C303.101 86.506 302.891 86.478 302.527 86.408V85.288C302.765 85.316 302.891 85.33 303.115 85.33C303.675 85.33 304.305 85.05 304.599 83.93ZM317.695 77.728H317.723V73.99H319.109V84H317.723V83.16H317.695C317.317 83.664 316.617 84.196 315.497 84.196C313.677 84.196 312.305 82.782 312.305 80.43C312.305 78.078 313.677 76.65 315.497 76.65C316.617 76.65 317.317 77.168 317.695 77.728ZM315.721 83.062C316.953 83.062 317.723 82.04 317.723 80.43C317.723 78.806 316.953 77.798 315.721 77.798C314.377 77.798 313.733 79.03 313.733 80.43C313.733 81.83 314.377 83.062 315.721 83.062ZM322.572 84.196C321.144 84.196 320.234 83.37 320.234 82.152C320.234 80.556 321.438 80.094 323.216 79.744C324.336 79.534 325.022 79.394 325.022 78.694C325.022 78.176 324.714 77.742 323.664 77.742C322.418 77.742 322.04 78.134 321.97 79.086H320.57C320.64 77.714 321.536 76.636 323.72 76.636C325.19 76.636 326.366 77.252 326.366 79.1V82.376C326.366 82.894 326.436 83.16 326.702 83.16C326.744 83.16 326.786 83.16 326.87 83.146V83.986C326.632 84.042 326.394 84.07 326.17 84.07C325.498 84.07 325.12 83.804 325.05 82.992H325.022C324.546 83.734 323.734 84.196 322.572 84.196ZM322.88 83.09C324.112 83.09 325.022 82.46 325.022 81.214V80.192C324.798 80.402 324.182 80.556 323.454 80.71C322.194 80.976 321.676 81.312 321.676 82.054C321.676 82.726 322.026 83.09 322.88 83.09ZM327.148 76.86H328.184V74.564H329.556V76.86H330.928V77.994H329.556V82.026C329.556 82.782 329.766 82.95 330.354 82.95C330.578 82.95 330.69 82.936 330.942 82.894V84C330.578 84.07 330.368 84.084 330.06 84.084C328.898 84.084 328.184 83.636 328.184 81.984V77.994H327.148V76.86ZM335.069 84.21C332.801 84.21 331.541 82.6 331.541 80.416C331.541 78.176 332.885 76.636 335.069 76.636C337.239 76.636 338.457 78.064 338.457 80.276C338.457 80.472 338.457 80.682 338.443 80.794H332.955C332.983 81.998 333.683 83.09 335.097 83.09C336.357 83.09 336.833 82.278 336.973 81.802H338.359C337.995 83.174 336.945 84.21 335.069 84.21ZM335.027 77.756C333.879 77.756 333.039 78.54 332.955 79.716H337.015C337.015 78.596 336.245 77.756 335.027 77.756Z" fill="#475467"/>
<path d="M204.216 107.432C204.216 109.368 203.448 111.224 200.744 111.224C198.04 111.224 197.288 109.368 197.288 107.432V106.968H198.984V107.432C198.984 108.744 199.208 109.704 200.712 109.704C202.2 109.704 202.456 108.744 202.456 107.432V99.56H204.216V107.432ZM208.011 111.224C206.379 111.224 205.339 110.28 205.339 108.888C205.339 107.064 206.715 106.536 208.747 106.136C210.027 105.896 210.811 105.736 210.811 104.936C210.811 104.344 210.459 103.848 209.259 103.848C207.835 103.848 207.403 104.296 207.323 105.384H205.723C205.803 103.816 206.827 102.584 209.323 102.584C211.003 102.584 212.347 103.288 212.347 105.4V109.144C212.347 109.736 212.427 110.04 212.731 110.04C212.779 110.04 212.827 110.04 212.923 110.024V110.984C212.651 111.048 212.379 111.08 212.123 111.08C211.355 111.08 210.923 110.776 210.843 109.848H210.811C210.267 110.696 209.339 111.224 208.011 111.224ZM208.363 109.96C209.771 109.96 210.811 109.24 210.811 107.816V106.648C210.555 106.888 209.851 107.064 209.019 107.24C207.579 107.544 206.987 107.928 206.987 108.776C206.987 109.544 207.387 109.96 208.363 109.96ZM214.191 111V102.84H215.759V103.864H215.791C216.223 103.24 217.071 102.6 218.479 102.6C219.983 102.6 221.199 103.464 221.199 105.336V111H219.615V105.768C219.615 104.68 219.135 103.944 217.967 103.944C216.623 103.944 215.759 104.76 215.759 105.992V111H214.191ZM233.036 111H231.292V108.472H226.044V106.872L231.292 99.944H233.036V106.984H234.572V108.472H233.036V111ZM231.292 102.168L227.628 106.984H231.292V102.168ZM235.72 113.176V112.312C236.312 112.136 236.568 111.832 236.552 111H235.72V109.256H237.464V111C237.464 112.04 237.016 112.856 235.72 113.176ZM244.325 103.848H242.565C242.565 101.496 243.829 99.72 246.629 99.72C248.629 99.72 250.26 100.92 250.26 103.032C250.26 105.176 248.517 106.264 246.917 107.256C245.845 107.896 244.821 108.504 244.501 109.48V109.512H250.133V111H242.277C242.277 108.92 243.541 107.496 245.653 106.168C247.525 105.032 248.453 104.568 248.453 103.096C248.453 102.184 248.101 101.208 246.581 101.208C244.853 101.208 244.325 102.328 244.325 103.848ZM255.918 111.224C252.83 111.224 251.518 108.648 251.518 105.48C251.518 102.312 252.83 99.72 255.918 99.72C259.006 99.72 260.318 102.312 260.318 105.48C260.318 108.648 259.006 111.224 255.918 111.224ZM255.918 109.736C257.918 109.736 258.51 107.752 258.51 105.48C258.51 103.208 257.918 101.208 255.918 101.208C253.934 101.208 253.326 103.208 253.326 105.48C253.326 107.752 253.934 109.736 255.918 109.736ZM263.387 103.848H261.627C261.627 101.496 262.891 99.72 265.691 99.72C267.691 99.72 269.323 100.92 269.323 103.032C269.323 105.176 267.579 106.264 265.979 107.256C264.907 107.896 263.883 108.504 263.563 109.48V109.512H269.195V111H261.339C261.339 108.92 262.603 107.496 264.715 106.168C266.587 105.032 267.515 104.568 267.515 103.096C267.515 102.184 267.163 101.208 265.643 101.208C263.915 101.208 263.387 102.328 263.387 103.848ZM277.052 111H275.308V108.472H270.06V106.872L275.308 99.944H277.052V106.984H278.588V108.472H277.052V111ZM275.308 102.168L271.644 106.984H275.308V102.168Z" fill="#101828"/>
<line x1="221" y1="153.5" x2="350" y2="153.5" stroke="#D0D5DD" stroke-width="3"/>
<rect x="350" y="143" width="20" height="20" rx="2" fill="#D0D5DD"/>
<line x1="46" y1="153.5" x2="209" y2="153.5" stroke="#1C77FF" stroke-width="3"/>
<path d="M42.6167 145.667C45.4417 145.667 47.3334 147.65 47.3334 150.6V157.409C47.3334 160.35 45.4417 162.333 42.6167 162.333H35.3917C32.5667 162.333 30.6667 160.35 30.6667 157.409V150.6C30.6667 147.65 32.5667 145.667 35.3917 145.667H42.6167ZM42.4834 151.5C42.2001 151.217 41.7334 151.217 41.4501 151.5L38.0084 154.942L36.5501 153.483C36.2667 153.2 35.8001 153.2 35.5167 153.483C35.2334 153.767 35.2334 154.225 35.5167 154.517L37.5001 156.492C37.6417 156.633 37.8251 156.7 38.0084 156.7C38.2001 156.7 38.3834 156.633 38.5251 156.492L42.4834 152.533C42.7667 152.25 42.7667 151.792 42.4834 151.5Z" fill="#1C77FF"/>
<path d="M218.617 145.667C221.442 145.667 223.333 147.65 223.333 150.6V157.409C223.333 160.35 221.442 162.333 218.617 162.333H211.392C208.567 162.333 206.667 160.35 206.667 157.409V150.6C206.667 147.65 208.567 145.667 211.392 145.667H218.617ZM218.483 151.5C218.2 151.217 217.733 151.217 217.45 151.5L214.008 154.942L212.55 153.483C212.267 153.2 211.8 153.2 211.517 153.483C211.233 153.767 211.233 154.225 211.517 154.517L213.5 156.492C213.642 156.633 213.825 156.7 214.008 156.7C214.2 156.7 214.383 156.633 214.525 156.492L218.483 152.533C218.767 152.25 218.767 151.792 218.483 151.5Z" fill="#1C77FF"/>
<path d="M29.512 178V172.28H31.896C32.976 172.28 33.776 172.784 33.776 173.984C33.776 175.184 32.976 175.68 31.896 175.68H30.392V178H29.512ZM30.392 174.92H31.856C32.52 174.92 32.856 174.624 32.856 173.984C32.856 173.336 32.52 173.04 31.856 173.04H30.392V174.92ZM34.3756 172.344H35.2636V173.192H34.3756V172.344ZM34.4316 173.92H35.2156V178H34.4316V173.92ZM38.889 175.4C38.857 174.976 38.617 174.448 37.865 174.448C37.001 174.448 36.681 175.192 36.681 175.96C36.681 176.728 37.001 177.464 37.865 177.464C38.617 177.464 38.857 176.952 38.889 176.488H39.705C39.649 177.424 38.913 178.12 37.873 178.12C36.657 178.12 35.865 177.24 35.865 175.96C35.865 174.68 36.657 173.8 37.865 173.8C38.913 173.8 39.609 174.48 39.705 175.4H38.889ZM40.3301 178V172.28H41.1141V175.648L42.8981 173.92H43.7941L42.2261 175.416L43.9621 178H43.0421L41.7061 175.912L41.1141 176.48V178H40.3301ZM45.9357 178.12C44.6397 178.12 43.9197 177.2 43.9197 175.952C43.9197 174.672 44.6877 173.792 45.9357 173.792C47.1757 173.792 47.8717 174.608 47.8717 175.872C47.8717 175.984 47.8717 176.104 47.8637 176.168H44.7277C44.7437 176.856 45.1437 177.48 45.9517 177.48C46.6717 177.48 46.9437 177.016 47.0237 176.744H47.8157C47.6077 177.528 47.0077 178.12 45.9357 178.12ZM45.9117 174.432C45.2557 174.432 44.7757 174.88 44.7277 175.552H47.0477C47.0477 174.912 46.6077 174.432 45.9117 174.432ZM51.4294 174.416H51.4454V172.28H52.2374V178H51.4454V177.52H51.4294C51.2134 177.808 50.8134 178.112 50.1734 178.112C49.1334 178.112 48.3494 177.304 48.3494 175.96C48.3494 174.616 49.1334 173.8 50.1734 173.8C50.8134 173.8 51.2134 174.096 51.4294 174.416ZM50.3014 177.464C51.0054 177.464 51.4454 176.88 51.4454 175.96C51.4454 175.032 51.0054 174.456 50.3014 174.456C49.5334 174.456 49.1654 175.16 49.1654 175.96C49.1654 176.76 49.5334 177.464 50.3014 177.464ZM59.3021 176.056C59.3021 177.288 58.6381 178.112 57.0621 178.112C55.4861 178.112 54.8221 177.288 54.8221 176.056V172.28H55.7101V176.056C55.7101 176.944 56.1501 177.352 57.0621 177.352C57.9741 177.352 58.4141 176.944 58.4141 176.056V172.28H59.3021V176.056ZM60.9269 177.496H60.9109V179.416H60.1269V173.92H60.9109V174.4H60.9269C61.1509 174.112 61.5429 173.8 62.1829 173.8C63.2229 173.8 64.0149 174.616 64.0149 175.96C64.0149 177.304 63.2229 178.112 62.1829 178.112C61.5429 178.112 61.1509 177.824 60.9269 177.496ZM62.0549 174.456C61.3509 174.456 60.9189 175.032 60.9189 175.96C60.9189 176.88 61.3509 177.464 62.0549 177.464C62.8229 177.464 63.1909 176.76 63.1909 175.96C63.1909 175.16 62.8229 174.456 62.0549 174.456Z" fill="#101828"/>
<path d="M204.672 174.64C205.776 174.92 206.816 175.184 206.816 176.392C206.816 177.376 206.144 178.112 204.72 178.112C203.272 178.112 202.248 177.36 202.192 176.072H203.104C203.168 176.84 203.624 177.36 204.696 177.36C205.608 177.36 205.896 176.96 205.896 176.44C205.896 175.712 205.336 175.608 204.296 175.344C203.4 175.112 202.416 174.816 202.416 173.728C202.416 172.736 203.184 172.168 204.416 172.168C205.72 172.168 206.568 172.832 206.656 173.984H205.736C205.648 173.296 205.256 172.92 204.416 172.92C203.704 172.92 203.328 173.184 203.328 173.68C203.328 174.32 203.936 174.456 204.672 174.64ZM210.214 175.384C210.214 174.84 209.974 174.472 209.39 174.472C208.718 174.472 208.286 174.88 208.286 175.496V178H207.502V172.28H208.286V174.432H208.302C208.518 174.12 208.942 173.8 209.646 173.8C210.398 173.8 211.006 174.232 211.006 175.168V178H210.214V175.384ZM211.79 172.344H212.678V173.192H211.79V172.344ZM211.846 173.92H212.63V178H211.846V173.92ZM214.302 177.496H214.286V179.416H213.502V173.92H214.286V174.4H214.302C214.526 174.112 214.918 173.8 215.558 173.8C216.598 173.8 217.39 174.616 217.39 175.96C217.39 177.304 216.598 178.112 215.558 178.112C214.918 178.112 214.526 177.824 214.302 177.496ZM215.43 174.456C214.726 174.456 214.294 175.032 214.294 175.96C214.294 176.88 214.726 177.464 215.43 177.464C216.198 177.464 216.566 176.76 216.566 175.96C216.566 175.16 216.198 174.456 215.43 174.456ZM218.841 177.496H218.825V179.416H218.041V173.92H218.825V174.4H218.841C219.065 174.112 219.457 173.8 220.097 173.8C221.137 173.8 221.929 174.616 221.929 175.96C221.929 177.304 221.137 178.112 220.097 178.112C219.457 178.112 219.065 177.824 218.841 177.496ZM219.969 174.456C219.265 174.456 218.833 175.032 218.833 175.96C218.833 176.88 219.265 177.464 219.969 177.464C220.737 177.464 221.105 176.76 221.105 175.96C221.105 175.16 220.737 174.456 219.969 174.456ZM224.42 178.12C223.124 178.12 222.404 177.2 222.404 175.952C222.404 174.672 223.172 173.792 224.42 173.792C225.66 173.792 226.356 174.608 226.356 175.872C226.356 175.984 226.356 176.104 226.348 176.168H223.212C223.228 176.856 223.628 177.48 224.436 177.48C225.156 177.48 225.428 177.016 225.508 176.744H226.3C226.092 177.528 225.492 178.12 224.42 178.12ZM224.396 174.432C223.74 174.432 223.26 174.88 223.212 175.552H225.532C225.532 174.912 225.092 174.432 224.396 174.432ZM229.914 174.416H229.93V172.28H230.722V178H229.93V177.52H229.914C229.698 177.808 229.298 178.112 228.658 178.112C227.618 178.112 226.834 177.304 226.834 175.96C226.834 174.616 227.618 173.8 228.658 173.8C229.298 173.8 229.698 174.096 229.914 174.416ZM228.786 177.464C229.49 177.464 229.93 176.88 229.93 175.96C229.93 175.032 229.49 174.456 228.786 174.456C228.018 174.456 227.65 175.16 227.65 175.96C227.65 176.76 228.018 177.464 228.786 177.464Z" fill="#101828"/>
<path d="M343.512 178V172.28H345.896C347.16 172.28 347.84 172.872 347.84 173.928C347.84 174.656 347.4 175.184 346.776 175.328V175.344C348.096 175.592 347.608 177.848 347.92 177.944V178H346.976C346.72 177.76 347.264 175.76 345.864 175.76H344.392V178H343.512ZM344.392 173.04V175H345.704C346.512 175 346.952 174.648 346.952 173.992C346.952 173.376 346.6 173.04 345.72 173.04H344.392ZM350.428 178.12C349.132 178.12 348.412 177.2 348.412 175.952C348.412 174.672 349.18 173.792 350.428 173.792C351.668 173.792 352.364 174.608 352.364 175.872C352.364 175.984 352.364 176.104 352.356 176.168H349.22C349.236 176.856 349.636 177.48 350.444 177.48C351.164 177.48 351.436 177.016 351.516 176.744H352.308C352.1 177.528 351.5 178.12 350.428 178.12ZM350.404 174.432C349.748 174.432 349.268 174.88 349.22 175.552H351.54C351.54 174.912 351.1 174.432 350.404 174.432ZM355.866 175.4C355.834 174.976 355.594 174.448 354.842 174.448C353.978 174.448 353.658 175.192 353.658 175.96C353.658 176.728 353.978 177.464 354.842 177.464C355.594 177.464 355.834 176.952 355.866 176.488H356.682C356.626 177.424 355.89 178.12 354.85 178.12C353.634 178.12 352.842 177.24 352.842 175.96C352.842 174.68 353.634 173.8 354.842 173.8C355.89 173.8 356.586 174.48 356.682 175.4H355.866ZM357.251 172.344H358.139V173.192H357.251V172.344ZM357.307 173.92H358.091V178H357.307V173.92ZM360.756 178.12C359.46 178.12 358.74 177.2 358.74 175.952C358.74 174.672 359.508 173.792 360.756 173.792C361.996 173.792 362.692 174.608 362.692 175.872C362.692 175.984 362.692 176.104 362.684 176.168H359.548C359.564 176.856 359.964 177.48 360.772 177.48C361.492 177.48 361.764 177.016 361.844 176.744H362.636C362.428 177.528 361.828 178.12 360.756 178.12ZM360.732 174.432C360.076 174.432 359.596 174.88 359.548 175.552H361.868C361.868 174.912 361.428 174.432 360.732 174.432ZM362.798 173.92H363.638L364.702 177.192H364.718L365.766 173.92H366.59L365.134 178H364.254L362.798 173.92ZM368.717 178.12C367.421 178.12 366.701 177.2 366.701 175.952C366.701 174.672 367.469 173.792 368.717 173.792C369.957 173.792 370.653 174.608 370.653 175.872C370.653 175.984 370.653 176.104 370.645 176.168H367.509C367.525 176.856 367.925 177.48 368.733 177.48C369.453 177.48 369.725 177.016 369.805 176.744H370.597C370.389 177.528 369.789 178.12 368.717 178.12ZM368.693 174.432C368.037 174.432 367.557 174.88 367.509 175.552H369.829C369.829 174.912 369.389 174.432 368.693 174.432ZM374.211 174.416H374.227V172.28H375.019V178H374.227V177.52H374.211C373.995 177.808 373.595 178.112 372.955 178.112C371.915 178.112 371.131 177.304 371.131 175.96C371.131 174.616 371.915 173.8 372.955 173.8C373.595 173.8 373.995 174.096 374.211 174.416ZM373.083 177.464C373.787 177.464 374.227 176.88 374.227 175.96C374.227 175.032 373.787 174.456 373.083 174.456C372.315 174.456 371.947 175.16 371.947 175.96C371.947 176.76 372.315 177.464 373.083 177.464Z" fill="#344054"/>
</g>
<defs>
<filter id="filter0_d_1_13515" x="0" y="0" width="415" height="219" filterUnits="userSpaceOnUse" color-interpolation-filters="sRGB">
<feFlood flood-opacity="0" result="BackgroundImageFix"/>
<feColorMatrix in="SourceAlpha" type="matrix" values="0 0 0 0 0 0 0 0 0 0 0 0 0 0 0 0 0 0 127 0" result="hardAlpha"/>
<feMorphology radius="3" operator="erode" in="SourceAlpha" result="effect1_dropShadow_1_13515"/>
<feOffset dy="-2"/>
<feGaussianBlur stdDeviation="4"/>
<feComposite in2="hardAlpha" operator="out"/>
<feColorMatrix type="matrix" values="0 0 0 0 0.843137 0 0 0 0 0.843137 0 0 0 0 0.886275 0 0 0 1 0"/>
<feBlend mode="normal" in2="BackgroundImageFix" result="effect1_dropShadow_1_13515"/>
<feBlend mode="normal" in="SourceGraphic" in2="effect1_dropShadow_1_13515" result="shape"/>
</filter>
</defs>
</svg>
